<?xml version="1.0" standalone="no"?>
<!DOCTYPE svg PUBLIC "-//W3C//DTD SVG 20010904//EN"
 "http://www.w3.org/TR/2001/REC-SVG-20010904/DTD/svg10.dtd">
<svg version="1.0" xmlns="http://www.w3.org/2000/svg"
 width="512.000000pt" height="512.000000pt" viewBox="0 0 512.000000 512.000000"
 preserveAspectRatio="xMidYMid meet">
<metadata>
Created by potrace 1.14, written by Peter Selinger 2001-2017
</metadata>
<g transform="translate(0.000000,512.000000) scale(0.100000,-0.100000)"
fill="#000000" stroke="none">
<path d="M33 5097 c-26 -18 -32 -29 -33 -59 0 -41 -2 -40 87 -22 24 5 32 -4
39 -40 3 -18 -1 -26 -17 -31 -11 -4 -18 -13 -15 -20 2 -7 -4 -21 -15 -31 -19
-17 -21 -16 -49 17 l-29 34 -1 -62 c0 -52 3 -63 16 -63 15 0 64 -47 64 -61 0
-10 -48 -39 -65 -39 -12 0 -15 -14 -15 -75 0 -43 4 -75 10 -75 6 0 10 -7 10
-15 0 -8 3 -15 8 -15 4 -1 27 -30 52 -65 26 -37 59 -70 78 -79 18 -9 31 -20
28 -25 -13 -20 -119 -72 -151 -73 l-35 -1 0 -72 c0 -70 1 -73 56 -156 81 -122
78 -115 54 -149 -12 -17 -41 -42 -66 -56 -40 -23 -44 -30 -44 -64 l0 -38 62
20 c93 29 181 35 212 14 28 -18 150 -252 140 -268 -9 -13 -106 -57 -169 -75
-27 -8 -65 -21 -82 -29 -18 -8 -61 -25 -95 -38 l-63 -24 -3 -57 c-3 -64 -4
-64 85 -24 56 25 66 24 101 -11 34 -34 94 -181 90 -219 -4 -30 -45 -55 -186
-108 l-92 -36 0 -105 c0 -102 1 -105 30 -139 38 -43 38 -62 0 -69 -16 -4 -30
-13 -30 -20 0 -18 28 -17 60 1 14 8 31 14 37 15 32 1 182 -253 169 -287 -3 -7
-41 -30 -83 -49 -43 -20 -102 -46 -131 -60 l-52 -24 0 -260 0 -260 39 0 c31 0
40 -4 46 -22 10 -33 40 -304 40 -363 l0 -50 -51 -6 c-29 -4 -57 -10 -63 -13
-7 -5 -11 -50 -11 -125 l0 -118 37 1 c36 1 38 -1 69 -62 18 -35 39 -90 47
-123 16 -62 13 -70 -28 -83 -18 -5 -24 4 -49 72 -34 93 -64 162 -72 162 -12 0
6 -88 30 -145 35 -82 34 -104 -4 -111 -27 -6 -30 -10 -30 -46 0 -34 3 -39 17
-33 108 41 141 49 156 36 17 -13 41 -86 63 -186 14 -66 13 -70 -16 -78 -25 -6
-34 12 -44 88 -8 51 -49 135 -66 135 -15 0 -12 -17 9 -59 11 -21 23 -61 27
-89 6 -48 4 -53 -24 -81 -17 -17 -50 -36 -76 -43 -40 -11 -46 -16 -46 -39 l0
-27 52 14 c29 7 82 29 119 48 36 19 70 31 76 28 13 -9 83 -219 83 -250 0 -12
-6 -25 -14 -28 -30 -12 -52 16 -80 98 -34 97 -40 106 -61 88 -11 -9 -12 -15
-5 -20 13 -8 33 -87 25 -100 -3 -4 3 -6 13 -3 14 3 22 -4 32 -26 11 -28 10
-34 -5 -51 -10 -11 -32 -24 -49 -29 -23 -7 0 -9 87 -10 l117 -1 2 53 c1 28 1
75 -1 104 -4 85 35 139 117 156 69 15 278 15 293 0 8 -8 14 -65 17 -163 l5
-150 37 0 c46 0 52 18 34 105 -24 114 -14 168 36 195 23 12 167 50 192 50 21
0 52 -55 44 -77 -5 -13 -9 -13 -22 -2 -11 9 -17 10 -22 1 -11 -16 -58 -32 -98
-32 -27 0 -34 -4 -34 -20 0 -25 17 -25 111 -4 39 9 73 14 76 11 2 -3 7 -23 10
-45 5 -40 5 -41 -36 -53 -22 -7 -41 -15 -41 -19 0 -4 -20 -11 -45 -14 -43 -7
-56 -18 -35 -31 9 -5 56 5 148 31 19 6 22 3 22 -23 0 -17 -9 -36 -22 -48 l-23
-20 109 -3 c95 -2 112 0 130 16 12 10 48 29 81 41 33 13 87 34 120 48 126 52
338 123 370 123 43 0 63 -25 111 -141 l37 -89 55 3 c37 2 59 9 67 20 17 23 42
21 48 -3 6 -22 27 -27 27 -7 0 15 31 47 46 47 5 0 24 -13 42 -30 36 -33 58
-39 48 -14 -3 9 -6 19 -6 24 0 23 -54 70 -79 70 -49 0 -130 -30 -166 -61 l-34
-30 -14 28 c-40 78 -108 246 -105 260 2 10 47 29 136 58 135 44 162 57 162 81
0 18 -22 13 -168 -37 -62 -21 -119 -39 -126 -39 -17 0 -32 35 -56 135 -14 58
-16 81 -8 86 7 4 41 15 76 24 35 8 82 24 105 35 23 11 57 19 75 18 41 -1 47 5
32 32 -8 15 -17 19 -28 15 -9 -4 -60 -18 -112 -32 -52 -13 -111 -32 -131 -42
l-37 -18 -11 36 c-8 27 -8 38 2 47 6 6 73 28 147 49 74 21 136 39 137 40 2 1
-8 35 -22 75 -29 84 -34 133 -10 88 23 -41 112 -298 155 -443 21 -72 48 -157
60 -190 11 -33 19 -67 17 -77 -3 -9 4 -29 14 -45 10 -15 19 -38 19 -49 0 -12
7 -38 15 -57 8 -20 15 -50 15 -67 0 -28 2 -30 40 -30 22 0 40 1 40 3 0 1 -9
25 -20 54 -11 29 -17 59 -14 66 8 21 54 41 179 81 303 95 329 99 368 65 27
-25 87 -173 87 -216 0 -15 -9 -27 -24 -35 -31 -14 -56 -4 -56 21 0 37 -51 182
-66 188 -25 9 -28 -4 -10 -50 24 -65 26 -120 2 -125 -25 -5 -33 5 -60 79 -17
49 -28 65 -44 67 -23 4 -30 -16 -13 -33 6 -6 21 -44 34 -85 24 -75 49 -101 60
-60 3 11 13 20 22 20 24 0 56 -20 50 -31 -4 -5 107 -9 294 -9 183 0 302 4 306
10 7 11 128 50 155 50 11 0 27 -13 37 -30 l17 -30 124 0 c124 0 124 0 118 23
-4 12 -12 47 -19 77 -6 30 -18 61 -25 69 -20 20 -10 54 19 68 36 17 238 55
256 49 30 -12 5 -28 -95 -61 -57 -19 -113 -40 -124 -46 -19 -10 -20 -12 -5
-21 12 -6 47 1 120 27 191 69 195 69 224 59 51 -18 94 -110 79 -169 -7 -29
-51 -54 -115 -65 -27 -4 107 -8 317 -9 l362 -1 0 40 0 40 -37 -15 c-21 -9 -48
-23 -60 -31 -35 -22 -58 -17 -92 21 -33 38 -66 131 -55 159 4 11 16 16 38 14
34 -2 96 19 108 36 4 6 27 11 52 11 45 0 46 1 46 32 l0 33 -33 -15 c-60 -27
-216 -85 -229 -85 -7 0 -59 -12 -115 -26 -56 -15 -108 -24 -116 -21 -9 3 -36
71 -65 159 -61 186 -63 195 -48 207 6 6 61 23 121 40 61 16 150 41 199 55 99
29 164 33 204 12 59 -31 92 -143 56 -194 -9 -13 -39 -34 -67 -46 -66 -30 -259
-92 -313 -101 -22 -3 -56 -16 -75 -28 l-34 -22 40 -3 c47 -3 291 63 402 109
l73 31 0 101 c0 66 -6 118 -16 147 -25 73 -37 132 -37 188 0 28 -4 52 -8 52
-10 0 -35 38 -43 66 -10 31 18 54 65 54 l39 0 0 170 0 170 -22 -5 c-38 -9 -50
8 -52 71 -2 33 -8 60 -15 62 -6 2 -11 10 -11 18 0 8 -6 14 -14 14 -8 0 -16 7
-20 15 -3 8 -12 15 -21 15 -19 0 -19 -2 6 -45 12 -19 18 -42 15 -51 -4 -12 -2
-15 9 -10 18 7 32 -18 41 -72 6 -39 5 -42 -22 -53 -16 -6 -48 -20 -72 -31 -24
-11 -56 -21 -70 -22 -15 0 -33 -7 -40 -13 -17 -16 -58 -27 -75 -20 -17 6 -100
215 -93 233 3 8 21 22 41 31 19 9 35 20 35 24 0 4 14 10 31 14 17 4 63 22 103
40 130 61 181 50 227 -50 l19 -40 0 108 c0 84 -3 107 -14 107 -7 0 -37 36 -66
80 -28 43 -58 84 -66 91 -8 6 -14 17 -14 24 0 7 36 50 80 95 68 70 80 88 80
116 0 32 -1 33 -30 28 -39 -8 -58 5 -220 149 -19 17 -60 51 -90 76 -30 24 -58
49 -62 55 -4 6 10 29 30 51 21 22 58 66 81 98 24 31 77 94 117 140 55 61 76
92 80 119 4 21 13 46 21 55 13 17 14 16 8 -7 -23 -84 -11 -149 31 -177 38 -24
43 -5 6 25 -36 30 -42 68 -20 129 9 25 16 32 30 27 16 -5 18 2 18 60 l0 66
-27 -11 c-37 -14 -72 -3 -78 24 -3 12 -29 38 -58 58 -48 33 -64 37 -118 30 -4
-1 -9 -10 -12 -21 -3 -11 -19 -25 -36 -31 -39 -14 -41 -43 -3 -58 15 -6 36
-25 47 -41 20 -30 55 -41 55 -17 0 6 -14 21 -30 32 -43 29 -48 54 -16 82 15
13 30 23 34 23 4 0 34 -25 66 -55 33 -30 63 -55 68 -55 21 0 6 -51 -21 -71
-16 -11 -34 -31 -40 -43 -7 -12 -21 -28 -32 -35 -18 -11 -30 -6 -106 46 -46
32 -93 63 -104 69 -29 17 -79 66 -79 78 0 23 61 101 167 214 61 64 147 157
191 205 45 49 93 97 107 108 24 20 25 25 25 130 0 60 -2 109 -4 109 -2 0 -28
-11 -58 -25 -29 -14 -60 -25 -69 -25 -17 0 -79 60 -79 77 0 6 -6 18 -13 25
-20 21 -84 113 -101 146 -24 46 -20 67 19 100 41 34 174 102 199 102 9 0 37
-19 61 -41 l45 -42 0 325 0 325 -55 59 c-77 82 -80 87 -51 121 13 15 33 48 45
72 13 24 31 46 42 48 15 4 19 14 19 44 l0 39 -75 0 -75 0 31 -28 32 -28 -57
-97 c-31 -53 -60 -98 -64 -101 -5 -3 -53 17 -107 45 -95 47 -135 59 -135 40 0
-15 70 -63 119 -82 25 -9 59 -22 74 -28 29 -11 28 -19 -7 -64 -12 -15 -18 -16
-35 -7 -17 9 -22 8 -27 -5 -5 -12 -10 -13 -20 -5 -7 7 -11 17 -8 24 6 15 -22
29 -37 20 -6 -3 -15 -1 -22 4 -15 12 -67 21 -67 12 0 -17 95 -75 109 -66 12 8
40 -26 38 -45 -5 -32 -37 -69 -60 -69 -12 1 -67 29 -122 64 -118 75 -124 87
-71 162 19 27 47 69 62 94 14 25 39 64 55 88 42 63 39 72 -25 72 l-54 0 5 -44
c5 -42 3 -47 -41 -93 -35 -38 -62 -56 -118 -77 -40 -15 -109 -42 -152 -59
-110 -42 -118 -37 -167 108 -20 61 -35 113 -32 117 2 4 30 16 61 25 l57 18
-294 3 c-162 1 -296 1 -298 -2 -3 -3 26 -210 44 -309 7 -38 -20 -67 -63 -67
-48 0 -57 24 -28 68 29 43 30 56 4 42 -11 -6 -25 -8 -31 -5 -5 4 -16 1 -24 -5
-8 -7 -15 -8 -15 -3 0 5 -10 9 -22 8 -13 -1 -23 -7 -22 -13 1 -7 2 -18 3 -25
2 -25 42 -58 62 -52 36 12 19 -13 -21 -29 -61 -24 -114 -30 -126 -14 -6 7 -26
46 -44 86 -26 57 -31 75 -21 85 6 6 69 26 139 43 114 28 127 33 130 54 3 18 0
21 -13 16 -10 -3 -58 -15 -109 -27 -50 -11 -106 -27 -125 -35 -41 -18 -45 -14
-60 70 -25 130 -13 116 -98 116 -85 0 -79 11 -52 -93 10 -37 10 -50 1 -59 -19
-19 -46 18 -67 90 -17 57 -20 62 -46 62 l-28 0 24 -52 c42 -96 42 -104 -9
-126 -38 -17 -52 -4 -72 67 -24 81 -41 111 -65 111 -16 0 -19 -3 -12 -12 6 -7
17 -35 26 -62 9 -27 28 -64 42 -82 l25 -33 -22 -15 c-34 -22 -74 -29 -96 -17
-19 10 -61 105 -80 181 -7 31 -12 35 -46 38 -30 3 -41 -1 -53 -17 -18 -26 -39
-27 -55 -1 -12 19 -24 20 -161 20 l-148 0 16 -30 c21 -40 18 -62 -9 -82 -25
-18 -143 -68 -160 -68 -11 0 -26 20 -50 65 -6 11 -20 33 -31 49 -14 21 -16 31
-7 34 6 2 12 10 12 18 0 16 -65 20 -75 4 -3 -5 -19 -10 -35 -10 -16 0 -32 -4
-35 -10 -10 -16 -23 -12 -30 10 -6 18 -15 20 -81 20 -48 0 -74 -4 -74 -11 0
-7 16 -43 35 -80 42 -82 43 -103 10 -125 -31 -21 -50 -13 -59 23 -4 15 -23 65
-43 111 -27 62 -40 82 -55 82 -26 0 -20 -19 41 -143 27 -53 45 -100 40 -103
-15 -9 -242 -96 -265 -101 -27 -6 -40 11 -74 99 -15 40 -42 108 -59 151 -18
43 -29 82 -25 88 4 7 -51 9 -168 7 l-173 -3 -85 -39 c-116 -52 -152 -65 -167
-59 -18 7 -43 56 -43 83 0 17 -6 20 -44 20 -38 0 -44 -3 -48 -24 -3 -15 0 -27
8 -30 15 -6 94 -104 94 -117 0 -5 -11 -16 -24 -24 -22 -15 -26 -13 -97 37 -41
29 -97 77 -126 106 -28 28 -56 52 -62 52 -13 0 -14 -22 -3 -35 5 -6 24 -48 42
-95 18 -47 44 -99 57 -116 12 -17 23 -33 23 -36 0 -3 -18 -18 -41 -32 -52 -35
-70 -29 -62 18 7 45 -16 117 -62 193 -19 32 -35 68 -35 81 0 21 -3 22 -82 21
-67 -1 -89 -5 -115 -22z m1972 -26 c3 -10 3 -25 0 -33 -3 -8 6 -34 19 -59 38
-65 36 -71 -41 -89 -45 -11 -59 3 -88 87 -31 89 -31 93 -2 93 12 0 29 5 37 10
26 17 68 12 75 -9z m1965 -9 c36 -26 70 -99 70 -150 0 -24 4 -51 9 -60 12 -24
20 -97 12 -110 -4 -6 -55 -16 -113 -21 -131 -13 -158 -19 -158 -38 0 -9 7 -12
18 -9 9 2 59 8 111 11 52 4 106 11 119 16 30 11 30 11 38 -29 8 -41 -6 -46
-151 -61 -60 -7 -122 -14 -137 -17 -20 -5 -29 -1 -38 15 -18 34 -38 156 -46
278 -8 126 -6 131 58 164 81 41 160 46 208 11z m-2833 -39 c28 -19 93 -148 93
-187 0 -13 -9 -31 -21 -42 -20 -18 -21 -18 -32 1 -7 11 -25 50 -40 88 -32 75
-55 94 -89 76 -12 -7 -29 -13 -38 -14 -30 -5 -60 -17 -60 -26 0 -14 47 -11 85
5 43 18 50 10 94 -102 l21 -52 -21 -19 c-11 -10 -59 -33 -106 -50 -91 -33
-106 -32 -119 12 -3 12 -24 61 -45 110 -21 48 -39 95 -39 106 0 13 16 25 53
41 28 12 75 32 102 45 28 12 57 25 65 28 22 9 66 0 97 -20z m-926 -53 c4 0 19
-26 34 -57 l26 -57 -23 -18 c-29 -22 -47 -23 -54 0 -3 9 -14 40 -25 67 -33 79
-35 89 -16 82 9 -3 18 1 22 11 6 15 8 14 18 -5 5 -13 14 -23 18 -23z m297 -52
c17 -11 32 -23 32 -27 0 -6 -63 -41 -74 -41 -7 0 -86 137 -86 149 0 7 21 -3
48 -24 26 -20 62 -45 80 -57z m2182 10 c23 -46 54 -104 71 -129 16 -25 32 -59
35 -76 5 -26 2 -34 -20 -49 -16 -10 -31 -13 -35 -8 -5 5 -23 43 -40 84 -55
133 -106 208 -127 187 -3 -3 10 -34 29 -69 19 -35 45 -88 58 -118 12 -30 32
-65 43 -78 25 -28 21 -32 -84 -66 -111 -37 -123 -37 -130 -1 -10 46 -113 245
-127 245 -19 0 -16 -15 17 -80 17 -33 40 -85 51 -115 11 -30 27 -59 36 -64 25
-14 5 -31 -37 -31 -33 0 -39 4 -45 27 -11 45 -85 186 -111 213 -38 39 -29 7
33 -117 63 -126 62 -132 -10 -140 -38 -5 -46 -2 -64 21 -12 14 -33 61 -49 104
-15 42 -38 91 -51 109 -28 38 -29 54 -5 83 20 25 44 20 41 -8 -5 -52 -2 -54
41 -32 22 11 40 25 40 30 0 6 15 17 33 24 145 63 332 134 354 135 6 1 30 -36
53 -81z m-2525 -129 c-4 -10 -13 -20 -21 -20 -8 -1 -18 -2 -24 -3 -5 -1 -10 2
-10 7 0 4 -6 20 -15 37 -18 35 -19 43 -3 38 7 -3 19 2 27 9 11 12 16 9 33 -17
11 -18 16 -40 13 -51z m598 61 c32 -25 117 -181 117 -215 0 -22 -17 -33 -161
-105 -187 -94 -214 -99 -264 -50 -39 37 -95 146 -95 183 0 43 69 89 260 173
88 39 108 41 143 14z m2424 5 c11 -8 35 -50 53 -92 17 -43 51 -118 76 -166 24
-49 44 -94 44 -102 0 -8 14 -37 30 -65 17 -28 30 -55 30 -59 0 -5 -33 -19 -72
-31 -40 -13 -115 -41 -166 -63 -103 -44 -112 -42 -133 21 -6 20 -32 82 -56
137 -75 169 -123 298 -118 317 4 9 32 29 63 44 164 77 208 88 249 59z m-1320
-60 c12 -8 30 -30 41 -47 24 -39 92 -219 92 -242 0 -8 -12 -22 -27 -29 -52
-25 -140 -50 -156 -44 -9 3 -22 25 -28 48 -12 37 -11 43 6 55 28 21 49 17 79
-13 18 -18 30 -23 37 -16 11 11 -3 56 -26 79 -8 8 -22 39 -31 69 -15 48 -38
75 -51 61 -3 -3 7 -29 21 -60 14 -30 26 -59 26 -65 0 -14 -83 -62 -92 -53 -4
4 -18 35 -31 70 -13 35 -27 63 -30 63 -4 -1 -14 -1 -22 -1 -22 0 -19 -18 20
-94 19 -39 35 -78 35 -88 0 -10 4 -18 10 -18 8 0 40 -51 40 -64 0 -15 -86 -66
-111 -66 -28 0 -59 30 -59 58 0 8 -18 59 -40 113 -45 112 -48 138 -21 164 16
13 270 131 291 134 3 1 15 -6 27 -14z m2636 -97 c27 -24 91 -70 140 -103 50
-33 95 -67 101 -77 8 -13 1 -28 -30 -70 -23 -29 -52 -71 -66 -94 -48 -75 -48
-75 -125 -38 -37 19 -97 45 -133 59 -78 30 -110 51 -110 71 0 9 17 46 39 82
21 37 57 100 80 140 23 39 44 72 48 72 3 0 28 -19 56 -42z m-4281 -35 c39 -43
118 -166 118 -185 0 -13 -61 -62 -126 -101 -7 -4 -31 22 -60 66 -27 39 -52 73
-56 75 -4 2 -21 16 -39 31 -24 22 -29 32 -22 45 12 21 123 95 144 96 8 0 27
-12 41 -27z m1181 -16 c53 -64 107 -150 107 -169 0 -9 -9 -20 -20 -23 -11 -4
-33 -17 -48 -30 -16 -13 -77 -49 -136 -81 -60 -31 -131 -72 -159 -91 -28 -19
-57 -33 -65 -31 -23 4 -26 27 -5 35 10 3 35 17 56 30 20 13 37 20 37 17 0 -4
6 -2 13 4 6 5 39 25 72 42 75 41 154 93 155 102 0 14 -19 4 -255 -134 -103
-61 -119 -63 -161 -26 -39 35 -84 115 -84 150 0 13 6 30 13 38 22 28 84 71
118 80 43 13 68 -4 108 -72 44 -76 56 -89 74 -82 20 7 14 22 -40 103 -43 64
-55 109 -30 115 6 2 26 7 43 13 48 16 67 2 104 -78 18 -41 35 -76 36 -78 2 -2
13 4 23 13 19 18 19 19 -16 84 -20 37 -38 69 -39 71 -2 2 -10 -2 -19 -9 -12
-10 -16 -9 -22 5 -9 24 17 41 66 43 36 2 44 -3 74 -41z m2877 -3 c0 -8 -5 -12
-10 -9 -6 4 -8 11 -5 16 9 14 15 11 15 -7z m-673 -86 c28 -40 58 -89 68 -108
9 -19 31 -49 47 -66 24 -26 32 -45 40 -108 6 -42 8 -79 5 -82 -9 -9 -49 22
-77 60 -22 29 -91 117 -119 152 -5 7 -26 44 -45 83 -20 39 -41 71 -46 71 -5 0
-14 -9 -20 -19 -8 -15 -4 -31 15 -69 28 -55 32 -92 11 -92 -12 0 -46 55 -46
77 0 4 -9 19 -20 33 -25 32 -26 67 -2 75 11 3 37 19 58 35 59 45 73 40 131
-42z m143 11 c0 -11 -4 -17 -10 -14 -5 3 -10 15 -10 26 0 11 5 17 10 14 6 -3
10 -15 10 -26z m-1632 9 c-3 -7 -12 -14 -21 -16 -12 -2 -15 1 -11 12 7 19 38
22 32 4z m1980 -23 c17 -21 48 -163 38 -172 -4 -4 -241 -22 -294 -23 -37 0
-44 4 -52 26 -15 39 -22 127 -11 144 6 9 51 20 133 31 167 22 164 22 186 -6z
m-1254 -47 c18 -29 43 -62 55 -72 29 -27 65 -85 56 -94 -3 -4 -25 -14 -48 -22
-24 -9 -47 -26 -53 -39 -18 -35 -63 -59 -51 -27 5 11 -1 12 -36 1 -66 -20
-127 -46 -127 -55 0 -4 7 -13 15 -20 11 -9 25 -10 58 -1 72 18 220 90 243 119
20 25 22 25 31 6 6 -10 14 -46 18 -79 3 -33 13 -70 21 -82 14 -22 12 -24 -46
-53 -33 -16 -68 -30 -79 -30 -10 0 -26 -11 -35 -25 -18 -28 -46 -34 -46 -10 0
26 -19 16 -34 -17 -7 -18 -27 -41 -44 -51 -31 -17 -31 -17 -61 10 -24 22 -40
58 -75 163 -24 74 -56 161 -71 192 -34 74 -30 106 15 132 40 23 229 104 248
105 7 1 27 -23 46 -51z m2148 32 c15 0 30 -23 64 -95 24 -52 44 -98 44 -103 0
-5 -18 -23 -40 -41 l-40 -32 -11 28 c-6 15 -15 53 -21 83 -12 66 -19 81 -35
72 -12 -7 -4 -61 19 -127 22 -64 17 -76 -39 -95 l-51 -18 -27 59 c-34 78 -43
129 -22 129 9 0 17 7 19 16 2 13 9 11 41 -10 40 -27 46 -24 21 12 -19 28 -64
29 -87 2 -18 -21 -42 -18 -51 7 -8 19 11 43 34 43 9 0 22 11 28 25 15 32 67
57 106 50 16 -3 37 -5 48 -5z m-2608 -125 c11 -22 26 -44 32 -50 21 -19 87
-174 81 -189 -7 -17 -108 -66 -210 -102 -38 -13 -93 -35 -123 -49 -29 -14 -68
-28 -86 -32 -18 -3 -42 -12 -53 -20 -35 -24 -95 -36 -111 -22 -17 14 -134 250
-134 271 0 14 99 78 122 78 8 0 18 4 23 9 9 7 112 48 285 110 25 9 54 22 65
29 11 6 35 11 54 9 27 -2 37 -9 55 -42z m-1535 9 c17 -14 31 -34 31 -45 0 -16
-7 -19 -49 -19 -50 0 -66 -10 -73 -45 -2 -11 -12 -21 -23 -23 -35 -6 -46 -12
-41 -21 9 -14 98 20 135 52 46 38 65 35 91 -15 12 -24 38 -69 58 -100 97 -151
143 -230 140 -240 -4 -11 -198 -128 -256 -154 -43 -19 -68 -11 -84 29 -7 17
-25 56 -40 85 -16 30 -28 60 -28 68 0 8 16 24 35 35 25 15 35 28 35 45 0 32
-25 31 -46 -1 -26 -40 -52 -32 -76 23 -11 26 -33 74 -49 106 -33 67 -35 83
-15 131 11 26 29 41 78 66 111 56 134 59 177 23z m-444 -97 c52 -60 142 -198
150 -227 9 -37 -21 -70 -113 -126 -42 -25 -92 -59 -110 -75 -18 -16 -39 -29
-48 -29 -15 0 -134 174 -134 197 0 7 -4 13 -10 13 -5 0 -15 10 -21 22 -10 19
-8 25 22 50 l34 29 22 -28 c13 -15 22 -32 21 -38 -6 -32 97 -155 130 -155 21
0 102 68 102 86 0 9 -6 22 -12 29 -32 36 -38 45 -38 63 0 10 -9 27 -21 38 -12
10 -32 40 -45 66 -27 53 -39 64 -48 43 -3 -8 -2 -15 2 -15 4 0 16 -16 26 -35
11 -19 23 -35 28 -35 4 0 8 -7 8 -15 0 -15 27 -64 41 -75 4 -3 10 -19 13 -37
6 -25 3 -34 -16 -47 -47 -33 -70 -15 -159 131 -24 40 -50 75 -57 78 -8 3 -26
-8 -41 -24 -14 -15 -37 -31 -49 -35 -25 -8 -52 8 -52 29 0 19 46 53 83 60 18
4 68 29 112 55 44 26 87 50 95 52 27 8 50 -4 85 -45z m3153 3 c12 -16 22 -32
22 -36 0 -3 18 -25 39 -47 54 -57 93 -116 89 -135 -3 -18 -82 -80 -136 -109
l-34 -18 -40 45 c-22 25 -58 71 -80 103 -24 36 -46 57 -58 57 -38 0 -36 -38 3
-55 12 -6 35 -35 51 -66 17 -31 42 -65 58 -75 15 -11 26 -23 25 -29 -5 -13
-129 -103 -144 -104 -7 -1 -13 -5 -13 -9 0 -5 -28 -27 -62 -49 -35 -23 -110
-76 -168 -117 -114 -83 -139 -94 -175 -78 -24 11 -107 128 -146 204 -25 49
-20 64 38 113 48 41 59 48 180 122 37 22 86 55 108 73 22 18 60 43 85 56 25
13 74 43 110 65 68 43 209 119 220 119 3 0 16 -13 28 -30z m1276 -42 c19 -40
32 -76 29 -81 -7 -11 -73 -37 -95 -37 -14 0 -27 18 -48 66 -17 36 -30 70 -30
75 0 11 70 48 93 49 13 0 28 -21 51 -72z m-4300 28 c-6 -16 -24 -23 -24 -8 0
10 22 33 27 28 2 -2 1 -11 -3 -20z m3631 -6 c14 -16 15 -23 6 -34 -9 -11 -10
-24 -2 -53 24 -86 22 -92 -110 -213 -89 -83 -125 -110 -137 -105 -9 4 -30 12
-47 17 -16 6 -35 15 -41 20 -17 13 -30 358 -14 368 7 4 49 8 93 9 44 1 83 3
85 6 3 3 38 5 77 5 59 0 75 -4 90 -20z m300 -29 c63 -28 163 -126 177 -172 11
-37 10 -41 -18 -70 -51 -54 -59 -54 -59 3 0 43 -4 53 -27 69 -15 11 -37 37
-49 58 -18 33 -85 79 -97 67 -2 -3 21 -29 52 -59 32 -31 56 -63 56 -75 0 -20
-43 -62 -63 -62 -6 0 -41 30 -78 66 -38 36 -73 63 -79 59 -12 -8 -5 -23 35
-67 17 -18 45 -52 63 -74 23 -30 42 -44 68 -49 41 -7 58 1 31 16 -23 14 -21
35 5 53 31 22 35 21 54 -15 12 -24 13 -37 6 -54 -9 -20 -149 -123 -273 -202
l-50 -31 -27 25 c-31 29 -69 46 -83 37 -11 -7 -79 42 -79 57 0 5 12 19 27 32
14 12 51 43 81 70 30 26 62 47 70 47 7 0 27 -15 43 -32 65 -71 92 -98 100 -98
19 0 7 25 -35 74 -67 79 -86 115 -86 166 0 58 26 107 79 148 50 38 94 41 156
13z m-2987 -32 c53 -18 168 -203 179 -287 5 -38 4 -39 -48 -72 -30 -18 -78
-48 -106 -68 -30 -19 -59 -32 -68 -28 -9 3 -27 25 -41 48 -107 181 -134 229
-140 252 -5 22 1 34 42 74 92 91 119 103 182 81z m-248 -40 c0 -6 -11 -25 -24
-42 -14 -18 -30 -45 -36 -61 -8 -22 -14 -26 -22 -18 -15 15 -2 49 37 96 31 36
45 44 45 25z m2539 -252 c1 -9 -8 -25 -19 -34 -11 -10 -20 -21 -20 -25 0 -18
63 -76 100 -93 36 -16 45 -17 82 -4 l41 13 26 -34 c14 -19 52 -61 86 -93 l60
-58 -35 -29 c-47 -41 -65 -38 -91 13 -24 48 -67 97 -85 97 -7 0 -23 -13 -36
-29 -46 -54 -68 -63 -125 -48 -62 16 -94 36 -126 79 -24 32 -47 95 -47 130 0
21 93 123 140 153 l35 22 7 -21 c3 -11 6 -29 7 -39z m-3127 -46 c37 -46 68
-87 68 -91 0 -16 -241 -170 -265 -170 -27 0 -44 25 -65 98 -10 31 -18 42 -33
42 -25 0 -57 28 -57 49 1 10 35 33 92 61 50 24 107 57 126 73 20 15 42 26 51
25 8 -2 45 -41 83 -87z m1743 19 c22 -24 14 -47 -20 -60 -15 -6 -24 -14 -20
-20 3 -5 20 -3 41 8 l36 17 26 -32 c15 -17 50 -61 77 -98 28 -37 81 -106 118
-153 37 -47 66 -92 65 -100 -2 -9 -15 -19 -30 -24 -30 -10 -45 -1 -66 39 -8
13 -18 19 -30 17 -22 -6 -152 -101 -152 -111 0 -5 16 -18 36 -31 40 -26 40
-37 0 -66 l-28 -21 -26 32 c-15 17 -40 56 -57 86 -33 63 -28 80 28 93 18 3 50
23 73 44 22 21 53 45 67 55 15 9 25 21 22 25 -8 13 -144 -66 -187 -108 -31
-29 -40 -33 -52 -23 -22 19 -103 152 -111 183 -7 25 -3 29 47 51 36 16 57 33
66 52 7 15 10 30 7 33 -3 3 -5 0 -5 -6 0 -7 -7 -12 -15 -12 -19 0 -67 -29 -78
-48 -17 -27 -50 -30 -79 -9 -16 12 -28 26 -28 33 0 6 18 24 41 39 22 16 50 40
62 54 33 38 52 52 94 67 51 18 57 17 78 -6z m2352 -12 c12 -13 56 -70 98 -128
43 -58 89 -117 103 -132 14 -15 24 -29 21 -31 -26 -21 -138 -95 -150 -100 -12
-4 -31 16 -70 70 -117 164 -139 193 -149 193 -5 0 -16 -15 -24 -33 -9 -23 -34
-46 -79 -75 -72 -45 -95 -69 -56 -57 13 4 26 11 29 14 3 3 22 15 44 26 21 11
48 32 59 47 11 15 24 25 28 22 14 -8 99 -124 99 -134 0 -6 4 -10 9 -10 5 0 13
-9 16 -21 4 -11 20 -28 36 -38 l30 -18 -33 -28 c-18 -15 -44 -32 -58 -38 -14
-6 -46 -26 -72 -45 -26 -18 -55 -32 -65 -30 -18 3 -101 114 -139 186 -13 25
-34 50 -47 56 -43 22 -27 47 75 116 53 36 131 98 173 138 42 39 82 72 89 72 7
0 22 -10 33 -22z m-3480 -143 c40 -61 73 -115 73 -121 0 -6 -15 -18 -34 -27
-32 -15 -35 -15 -48 1 -18 22 -90 129 -106 158 -15 28 -27 30 -40 7 -7 -12 -3
-23 15 -43 13 -15 34 -45 45 -66 11 -22 29 -48 39 -60 30 -32 23 -50 -26 -69
-54 -20 -59 -17 -106 58 -18 29 -50 71 -73 94 -38 41 -39 43 -22 62 9 10 43
33 74 50 31 17 68 40 82 51 14 11 32 19 40 17 8 -1 48 -52 87 -112z m668 33
c45 -52 115 -168 115 -190 0 -13 -49 -56 -53 -46 -51 102 -73 144 -79 146 -5
2 -8 10 -8 17 0 16 -38 45 -58 45 -9 0 -1 -17 22 -44 20 -24 36 -49 36 -54 0
-5 7 -15 15 -22 8 -7 12 -16 9 -21 -3 -5 -1 -9 5 -9 5 0 13 -14 16 -32 7 -28
4 -36 -26 -60 -19 -16 -39 -26 -46 -24 -6 3 -17 -2 -24 -10 -7 -8 -41 -31 -75
-50 -76 -42 -96 -39 -126 19 -11 23 -40 71 -64 106 -24 35 -44 68 -44 74 0 18
72 78 125 104 27 14 59 33 70 43 35 30 79 49 117 50 31 0 42 -7 73 -42z m774
5 c34 -35 35 -38 14 -41 -12 -2 -40 8 -62 23 -32 20 -41 22 -41 10 0 -20 -14
-19 -31 1 -11 14 -10 18 6 30 34 25 74 17 114 -23z m777 -60 c49 -48 139 -156
244 -293 30 -40 67 -86 83 -102 15 -16 27 -32 27 -36 0 -9 -102 -83 -180 -130
-30 -19 -70 -48 -87 -65 -32 -30 -33 -30 -53 -12 -11 10 -49 61 -85 114 -36
53 -72 106 -80 117 -15 21 -13 23 62 77 43 30 96 70 118 90 l40 35 -17 36
c-20 41 -22 41 -62 17 -43 -25 -47 -45 -7 -36 55 12 36 -21 -49 -82 -30 -22
-69 -47 -86 -56 -28 -14 -33 -15 -53 0 -24 16 -81 90 -81 105 0 4 24 23 53 42
28 19 63 43 77 55 14 11 30 25 36 30 6 5 20 12 32 15 19 6 32 36 17 36 -9 0
-78 -46 -104 -69 -13 -11 -28 -21 -32 -21 -4 0 -14 -6 -21 -13 -7 -7 -27 -23
-45 -35 l-32 -23 -15 29 c-8 15 -11 33 -8 39 11 17 235 183 247 183 6 0 33
-21 61 -47z m669 -10 c40 -19 44 -29 14 -38 -22 -7 -59 18 -59 42 0 17 2 16
45 -4z m-3342 -56 c29 -29 74 -85 101 -124 l49 -72 -53 -55 -52 -54 -47 33
c-78 57 -193 181 -189 206 2 19 116 119 134 119 3 0 29 -24 57 -53z m157 29
c0 -7 34 -64 75 -126 71 -109 74 -115 60 -137 -25 -37 -44 -23 -116 87 -16 25
-40 60 -54 79 -30 41 -31 60 -4 95 20 26 39 27 39 2z m2995 -122 c14 -24 30
-44 35 -44 6 0 10 -6 10 -14 0 -15 -128 -126 -147 -126 -10 0 -33 29 -33 43 0
2 17 9 39 15 63 19 68 34 32 90 -35 55 -38 74 -15 97 15 15 18 15 35 -1 10 -9
30 -37 44 -60z m-1825 10 c0 -8 -4 -14 -10 -14 -5 0 -10 9 -10 21 0 11 5 17
10 14 6 -3 10 -13 10 -21z m2179 -24 c18 -27 42 -57 52 -66 24 -22 24 -31 -1
-39 -28 -9 -173 -145 -155 -145 8 0 15 5 15 10 0 6 5 10 10 10 20 0 9 -20 -14
-26 -27 -6 -41 -30 -25 -40 20 -12 59 7 74 36 9 17 11 30 5 30 -5 0 -10 5 -10
11 0 6 6 9 14 6 8 -3 16 2 19 15 6 22 44 21 39 -1 -1 -7 2 -10 7 -7 5 3 7 14
4 24 -6 25 20 44 54 40 23 -2 35 -15 66 -70 47 -81 44 -94 -26 -147 -29 -22
-79 -60 -111 -85 -33 -24 -69 -47 -79 -50 -23 -6 -60 31 -90 89 -11 22 -48 69
-82 105 -34 36 -72 80 -85 99 -23 34 -23 35 -5 45 11 6 40 32 65 58 50 52 186
148 210 148 8 0 30 -22 49 -50z m-2822 8 c13 -12 26 -31 29 -42 4 -12 24 -48
45 -82 46 -72 48 -95 13 -123 -30 -24 -44 -26 -44 -8 0 6 -11 32 -25 57 -13
25 -30 56 -37 70 -7 14 -15 27 -19 30 -3 3 -8 13 -12 22 -8 21 -46 44 -43 25
1 -6 13 -32 27 -57 14 -25 42 -73 62 -108 l36 -62 -22 -14 c-58 -36 -231 -126
-242 -126 -23 0 -71 59 -118 145 -48 87 -50 102 -18 122 17 11 23 4 61 -73 50
-98 103 -166 112 -143 7 17 -64 140 -119 207 -19 23 -33 49 -30 56 3 8 27 21
54 31 26 9 59 23 73 31 134 75 173 83 217 42z m2368 -24 c30 -41 26 -62 -13
-83 -30 -16 -42 -7 -43 32 0 30 -1 31 -11 10 -14 -28 -34 -29 -48 -4 -15 30
-12 39 18 55 34 19 79 14 97 -10z m-843 -175 c77 -77 138 -146 136 -153 -3
-15 -245 -206 -261 -206 -5 0 -29 -18 -53 -40 -24 -22 -55 -46 -69 -52 -33
-15 -49 0 -129 117 -33 49 -78 106 -98 126 -21 20 -38 42 -38 49 0 25 81 102
181 174 57 41 115 86 128 100 14 14 33 26 44 26 12 0 74 -55 159 -141z m111
84 c23 -21 22 -43 -3 -43 -11 0 -20 5 -20 10 0 6 -11 16 -25 22 -14 6 -25 18
-25 26 0 18 46 8 73 -15z m-522 -5 c10 -19 7 -26 -25 -55 -42 -38 -62 -42 -72
-11 -5 17 1 29 30 55 42 39 51 40 67 11z m-1946 6 c18 -7 135 -151 135 -166 0
-24 -299 -185 -363 -195 -33 -5 -41 -2 -70 30 -19 19 -44 62 -57 96 -21 57
-21 62 -6 86 9 14 20 25 24 25 4 0 23 14 42 31 40 37 103 66 185 84 72 16 88
17 110 9z m1445 -50 c27 -18 44 -40 56 -70 20 -52 16 -59 -59 -103 -29 -17
-62 -38 -74 -47 -20 -15 -22 -13 -53 31 -17 25 -30 51 -28 57 8 23 -23 46 -50
39 -26 -7 -43 -31 -23 -31 6 0 23 -19 37 -42 38 -62 75 -98 99 -98 27 0 111
55 132 86 21 33 43 29 76 -13 49 -66 43 -75 -98 -143 -69 -33 -135 -60 -145
-60 -14 0 -27 15 -43 48 -13 26 -45 86 -70 135 -26 48 -47 96 -47 106 0 11 24
35 59 60 112 78 165 88 231 45z m-1114 -53 c-8 -13 -36 -15 -36 -3 0 4 5 13
12 20 14 14 34 0 24 -17z m64 -15 c9 -12 1 -23 -49 -62 -55 -42 -80 -67 -49
-48 7 4 8 3 4 -4 -4 -6 -13 -9 -21 -6 -13 6 -42 -33 -31 -43 6 -6 98 45 108
61 4 6 8 7 8 3 0 -5 15 0 34 11 35 21 46 19 46 -5 0 -21 -17 -35 -92 -78 -52
-30 -65 -42 -56 -52 13 -16 44 -17 53 -2 5 7 14 4 27 -8 19 -17 20 -17 37 5
16 21 64 52 81 52 11 0 25 -40 21 -60 -4 -21 -42 -60 -58 -60 -23 0 -14 -30
13 -40 33 -13 33 -13 27 9 -9 36 42 64 77 41 20 -13 4 -40 -38 -61 -17 -9 -40
-26 -49 -38 -19 -23 -74 -43 -91 -32 -15 9 -102 159 -102 176 0 8 -6 12 -13 9
-14 -5 -113 68 -120 89 -8 23 6 48 34 63 19 9 29 22 29 37 0 28 17 47 42 47
21 0 24 -20 6 -38 -9 -9 -7 -12 9 -12 12 0 32 13 45 29 25 33 49 39 68 17z
m2273 -92 c26 -36 35 -64 19 -64 -9 0 -92 133 -92 146 1 10 27 -21 73 -82z
m-71 -44 c14 -25 34 -60 46 -79 12 -19 19 -38 16 -43 -8 -13 -23 0 -40 35 -8
18 -26 52 -39 77 -24 45 -33 83 -16 65 5 -6 20 -30 33 -55z m-1595 28 c40 -44
115 -167 110 -181 -3 -7 -59 -40 -126 -74 l-120 -61 -31 48 c-16 25 -30 54
-30 63 0 25 65 39 104 23 37 -15 126 -18 126 -4 0 22 -63 128 -76 128 -18 0
-18 -2 7 -54 13 -26 19 -51 15 -62 -6 -15 -13 -11 -52 27 l-45 44 -22 -25
c-12 -14 -39 -33 -60 -42 -20 -10 -37 -22 -37 -27 0 -15 41 -83 67 -112 l24
-26 -30 -13 c-17 -7 -37 -10 -44 -7 -8 3 -38 45 -67 93 -73 121 -82 108 175
250 71 40 85 41 112 12z m2065 -98 c-10 -22 -17 -41 -15 -44 3 -2 25 11 50 30
24 19 50 34 57 34 7 0 21 9 31 20 28 31 59 25 94 -17 37 -45 38 -56 7 -77 -26
-17 -55 -12 -69 11 -4 7 -11 13 -15 13 -4 0 -43 -34 -86 -76 -66 -62 -78 -79
-69 -92 17 -28 36 -20 61 26 30 54 66 80 87 62 27 -22 17 -54 -30 -98 -43 -41
-48 -42 -95 -38 -86 9 -123 38 -150 120 -11 36 -11 40 11 62 47 46 144 120
147 112 2 -5 -5 -26 -16 -48z m-2929 15 c5 -16 26 -48 47 -70 21 -22 47 -59
59 -82 12 -24 25 -43 30 -43 18 0 19 14 6 47 -10 24 -11 33 -3 31 13 -5 78
-123 78 -142 0 -12 -118 -83 -124 -74 -1 1 -8 17 -15 35 -12 30 -89 156 -110
180 -6 7 -11 16 -11 21 0 5 -9 17 -19 26 -17 15 -22 16 -34 5 -16 -15 -12 -20
55 -101 33 -39 34 -49 8 -66 -27 -16 -27 -37 -1 -22 30 16 34 13 74 -40 l37
-50 -59 -29 c-67 -35 -66 -35 -103 49 -29 64 -125 210 -139 210 -22 0 5 -83
39 -117 12 -12 32 -42 42 -65 11 -24 30 -58 41 -76 27 -42 21 -56 -36 -77 -45
-18 -46 -18 -70 5 -14 13 -25 27 -25 32 0 5 -25 59 -55 120 -42 87 -52 115
-44 129 14 27 104 91 185 132 38 20 78 42 89 51 28 22 47 16 58 -19z m3287 25
c0 -5 -5 -10 -11 -10 -5 0 -7 5 -4 10 3 6 8 10 11 10 2 0 4 -4 4 -10z m-1565
-64 c35 -37 85 -159 85 -206 0 -23 -8 -35 -38 -55 -42 -28 -284 -135 -305
-135 -7 0 -30 -9 -52 -20 -66 -34 -69 -31 -135 101 -34 66 -60 128 -58 137 2
10 26 26 55 37 28 12 57 26 65 33 15 12 126 76 207 119 29 15 61 23 94 23 44
0 54 -4 82 -34z m1991 -3 c16 -21 18 -53 4 -53 -14 0 -43 48 -35 60 9 14 16
13 31 -7z m-434 -10 c10 -9 18 -24 18 -33 0 -10 12 -26 28 -36 15 -10 36 -29
47 -43 11 -14 42 -50 69 -79 60 -64 59 -65 -44 -140 -94 -68 -112 -72 -144
-35 -31 34 -32 45 -6 68 11 10 20 25 20 33 0 16 -66 82 -82 82 -15 0 -99 -60
-104 -75 -6 -16 55 -105 72 -105 7 0 16 5 19 10 10 17 22 11 49 -24 l26 -34
-41 -41 c-42 -42 -72 -50 -100 -28 -25 20 -139 178 -139 194 0 20 121 133 142
133 24 0 23 26 -2 57 -28 36 -26 41 24 54 24 6 55 22 67 35 26 28 55 31 81 7z
m-2792 -28 c0 -8 -4 -15 -10 -15 -5 0 -10 7 -10 15 0 8 5 15 10 15 6 0 10 -7
10 -15z m1955 -25 c0 -13 -6 -25 -13 -28 -9 -3 -12 6 -10 27 3 36 23 36 23 1z
m208 3 c8 -10 38 -52 66 -93 28 -41 71 -99 96 -128 25 -29 45 -60 45 -70 -1
-17 -147 -118 -266 -183 -73 -40 -68 -43 -154 79 -33 48 -74 105 -90 126 -17
21 -30 44 -30 51 0 7 19 25 43 40 23 16 57 43 76 61 19 18 52 43 73 56 22 13
55 35 75 51 42 32 45 32 66 10z m1013 -9 c15 -22 15 -27 2 -40 -14 -14 -17
-13 -36 11 -22 27 -20 55 4 55 7 0 21 -12 30 -26z m-2596 -101 c30 -49 66
-103 82 -121 25 -29 46 -78 37 -86 -13 -11 -170 -86 -177 -84 -5 2 -21 -11
-36 -29 -15 -18 -33 -30 -40 -27 -8 3 -29 -4 -47 -15 -44 -27 -83 -27 -108 0
-29 32 -121 224 -121 254 0 19 5 25 21 25 11 0 70 28 130 61 60 34 112 60 114
57 3 -3 24 -40 46 -84 23 -43 47 -91 55 -107 12 -23 18 -26 34 -17 11 6 20 15
20 21 0 14 -79 139 -107 170 -28 30 -29 45 -5 58 36 21 49 11 102 -76z m2497
32 c12 -26 14 -38 6 -46 -14 -14 -63 34 -63 62 0 34 39 23 57 -16z m238 -18
c11 -7 49 -39 84 -72 35 -33 95 -82 134 -110 39 -27 72 -55 74 -61 2 -7 -11
-21 -29 -32 -18 -12 -64 -64 -103 -116 -38 -53 -78 -99 -89 -102 -12 -4 -33 5
-60 25 -54 41 -174 103 -186 96 -5 -3 -17 6 -27 21 -10 14 -31 41 -46 59 l-28
34 41 56 c40 54 60 68 60 42 0 -17 63 -76 125 -117 28 -18 69 -51 92 -72 65
-59 106 -44 44 16 -34 33 -44 61 -26 76 10 8 29 4 74 -15 70 -29 71 -29 71
-12 0 21 -74 57 -120 59 -36 1 -47 -3 -65 -26 -20 -25 -23 -26 -35 -11 -8 10
-37 32 -65 50 -27 19 -61 43 -75 54 l-24 19 39 58 c66 97 91 111 140 81z
m-4180 -125 c36 -70 37 -73 20 -92 -27 -30 -43 -24 -54 18 -6 20 -27 63 -46
95 -39 65 -42 82 -18 95 21 12 47 -18 98 -116z m-119 52 c8 -20 14 -40 12 -44
-2 -5 -27 -24 -57 -44 -61 -41 -70 -39 -91 23 -15 47 -10 58 44 82 60 27 75
24 92 -17z m1014 19 c0 -13 -43 -53 -57 -53 -25 0 -10 44 17 51 35 10 40 10
40 2z m2694 -39 c3 -9 6 -20 6 -25 0 -9 -52 -39 -70 -39 -18 0 -11 31 13 56
26 28 42 30 51 8z m-3863 -51 c21 -50 55 -93 72 -93 6 0 19 -7 29 -17 10 -9
21 -13 26 -8 4 4 1 10 -5 12 -23 8 -14 41 16 62 39 28 53 26 74 -8 18 -31 22
-61 9 -61 -4 0 -36 -20 -69 -45 -75 -54 -107 -64 -132 -41 -24 21 -80 144 -88
190 -5 34 5 46 45 55 1 1 12 -20 23 -46z m2694 37 c3 -5 1 -10 -4 -10 -6 0
-11 5 -11 10 0 6 2 10 4 10 3 0 8 -4 11 -10z m-1736 -36 c13 -9 38 -49 57 -88
18 -39 42 -84 53 -101 12 -16 21 -35 21 -40 0 -6 -34 -23 -76 -39 -42 -16
-103 -47 -136 -68 -32 -21 -65 -38 -73 -38 -20 0 -39 31 -85 145 l-40 99 30
31 c35 34 175 113 205 114 11 1 31 -6 44 -15z m1663 -20 c-22 -16 -26 -11 -12
16 9 17 14 20 20 9 6 -8 2 -17 -8 -25z m-2707 -54 c-10 -16 -45 8 -45 30 0 10
3 26 7 36 5 13 10 9 25 -20 10 -20 16 -41 13 -46z m3030 19 c14 -18 34 -48 44
-68 25 -47 87 -140 114 -169 l22 -24 -28 -24 c-15 -13 -37 -24 -48 -24 -21 0
-76 77 -85 120 -3 15 -15 30 -27 35 -12 6 -30 26 -39 46 -19 41 -48 70 -48 48
0 -8 11 -35 24 -60 15 -27 23 -55 19 -67 -4 -17 1 -24 20 -31 31 -12 98 -97
90 -116 -2 -8 -31 -27 -63 -43 -32 -16 -68 -37 -81 -46 -55 -38 -79 -19 -162
124 -30 52 -64 105 -76 118 -43 47 -27 70 89 126 41 20 93 47 115 61 55 34 87
32 120 -6z m-482 -31 c13 -18 41 -64 62 -103 21 -38 52 -86 68 -107 45 -57 39
-67 -73 -117 -25 -11 -61 -23 -80 -26 -35 -6 -36 -6 -48 42 -14 50 -98 213
-110 213 -4 0 -25 -16 -47 -36 -27 -25 -31 -31 -13 -20 15 9 32 16 37 16 6 0
31 -42 57 -92 25 -51 50 -97 55 -103 5 -5 9 -14 9 -20 0 -12 -64 -55 -83 -55
-7 0 -35 -11 -63 -24 -69 -33 -108 -40 -123 -23 -6 8 -25 41 -42 73 -16 33
-43 79 -59 104 -16 25 -32 59 -36 76 -5 29 -3 33 56 67 34 20 66 37 71 37 5 0
17 -16 26 -35 16 -34 16 -36 -7 -60 l-23 -25 26 0 c22 0 30 -9 52 -55 14 -31
25 -60 25 -65 0 -6 6 -10 14 -10 7 0 19 -7 26 -15 7 -8 16 -12 21 -9 10 6 -51
131 -93 190 -21 30 -29 50 -26 73 3 31 9 35 123 86 144 64 165 67 198 23z
m1668 -62 c-16 -23 -36 -59 -46 -81 -16 -39 -16 -41 6 -82 23 -42 23 -43 4
-58 -39 -29 -119 -65 -147 -65 -38 0 -71 35 -92 97 -25 77 -17 87 133 177 72
42 131 83 131 89 1 7 9 1 20 -11 20 -24 20 -24 -9 -66z m-3528 -31 c-7 -21
-13 -19 -13 6 0 11 4 18 10 14 5 -3 7 -12 3 -20z m-207 -21 c42 -20 94 -84 97
-119 2 -23 -10 -35 -92 -88 -107 -70 -94 -73 -157 38 -26 47 -33 55 -34 36 0
-14 16 -48 37 -78 35 -51 36 -53 18 -73 -33 -37 -58 -26 -89 39 -15 32 -30 77
-33 99 -5 38 -2 42 48 92 30 29 63 56 74 60 33 14 95 11 131 -6z m3174 -16
c14 -38 21 -52 72 -135 21 -35 38 -68 38 -74 0 -6 6 -9 13 -6 15 5 12 55 -5
88 -7 13 -32 50 -56 82 -44 59 -46 77 -11 77 36 0 75 -28 116 -82 67 -88 77
-123 49 -164 -14 -20 -199 -116 -325 -169 -63 -26 -65 -26 -79 -8 -28 36 -122
236 -122 259 0 15 10 30 28 40 15 9 45 29 67 44 49 34 152 79 181 80 15 0 25
-10 34 -32z m-1737 -40 c19 -10 49 -67 41 -79 -2 -4 -29 -5 -59 -2 -53 5 -55
5 -55 -20 0 -44 23 -52 81 -27 51 22 52 22 78 3 14 -11 51 -62 81 -115 30 -52
65 -110 77 -129 13 -19 22 -38 20 -44 -4 -13 -189 -125 -201 -122 -13 4 -57
87 -51 97 3 5 36 18 73 30 84 28 103 43 80 66 -15 16 -22 13 -98 -35 -95 -61
-143 -83 -164 -75 -25 10 -71 113 -59 133 18 29 39 23 59 -16 33 -67 74 -104
74 -68 0 15 -53 117 -75 145 -26 32 -108 231 -99 240 28 28 71 39 124 33 30
-3 63 -10 73 -15z m-1223 -14 c0 -8 -6 -14 -14 -14 -9 0 -12 7 -9 20 6 22 23
18 23 -6z m595 -61 c25 -37 45 -73 45 -80 0 -7 6 -16 13 -20 24 -14 77 -95 77
-118 0 -22 -23 -48 -59 -69 -73 -42 -142 -84 -175 -108 -21 -15 -47 -28 -56
-28 -10 0 -23 -7 -31 -16 -18 -22 -85 -55 -101 -49 -16 6 -73 90 -87 126 -5
14 -26 52 -46 83 -29 45 -34 60 -25 76 24 45 338 270 377 270 17 0 34 -18 68
-67z m421 0 c4 -21 22 -69 40 -106 l33 -69 -27 -25 -27 -25 -18 23 c-10 13
-37 54 -59 92 -38 63 -40 70 -27 93 12 23 52 52 71 54 4 0 10 -17 14 -37z
m2681 -40 c15 -20 65 -76 111 -125 45 -48 82 -97 82 -107 0 -19 -81 -78 -192
-141 -32 -17 -61 -36 -64 -41 -8 -14 -24 -11 -24 6 0 16 -48 99 -88 153 -24
31 -52 43 -52 21 0 -14 74 -125 107 -161 l25 -26 -52 -41 c-29 -23 -74 -54
-99 -69 -25 -14 -65 -41 -89 -59 -24 -18 -48 -33 -54 -33 -6 0 -28 -16 -50
-36 -44 -40 -99 -67 -120 -59 -17 7 -129 173 -159 237 l-23 48 33 34 c38 39
87 64 101 50 5 -5 24 -37 42 -71 34 -65 131 -183 150 -183 5 0 8 6 5 13 -11
28 -140 203 -168 227 -33 28 -30 36 26 70 22 13 69 46 105 71 36 26 93 62 127
81 65 35 178 110 228 152 41 34 59 32 92 -11z m-3659 -56 c28 -29 72 -118 72
-146 0 -6 -39 -36 -87 -67 -105 -68 -173 -122 -173 -135 0 -21 33 -5 116 56
93 68 103 72 122 53 19 -19 14 -34 -15 -47 -16 -7 -72 -37 -125 -68 l-98 -55
-26 21 c-15 12 -35 21 -44 21 -22 0 -78 61 -115 125 -27 45 -27 48 -12 80 11
23 45 53 114 98 131 86 151 96 199 97 33 0 46 -6 72 -33z m2494 -36 c66 -42
172 -191 166 -232 -2 -14 -33 -39 -94 -77 -50 -32 -110 -70 -134 -87 -30 -20
-45 -26 -48 -17 -2 6 -8 12 -14 12 -6 0 -8 -6 -5 -14 3 -8 -2 -21 -11 -29 -34
-29 -109 -67 -133 -67 -49 0 -179 163 -179 223 0 16 9 42 20 57 23 33 106 90
130 90 9 0 43 25 75 55 31 30 61 55 65 55 4 0 24 14 45 30 47 37 60 37 117 1z
m1460 -28 c34 -38 40 -59 22 -78 -23 -22 -54 -18 -80 11 -28 30 -30 51 -7 76
22 25 35 23 65 -9z m-3122 7 c0 -5 -7 -10 -16 -10 -8 0 -12 5 -9 10 3 6 10 10
16 10 5 0 9 -4 9 -10z m998 -139 c31 -49 84 -131 117 -182 99 -153 146 -232
143 -239 -4 -11 -156 -130 -166 -130 -5 0 -21 -13 -37 -30 -16 -16 -48 -37
-73 -47 -44 -17 -44 -16 -63 8 -24 31 -49 112 -49 159 0 35 4 39 58 69 31 18
71 40 87 51 17 10 40 19 52 19 35 1 53 12 53 31 0 33 -20 33 -93 -2 -40 -19
-89 -42 -109 -51 l-38 -17 0 39 c0 43 31 78 103 116 38 20 48 48 23 62 -8 4
-33 40 -55 80 -23 39 -48 77 -56 83 -29 24 -6 65 38 69 4 1 33 -39 65 -88z
m-900 38 l22 -26 -22 3 c-13 1 -26 3 -30 3 -10 1 -10 35 -1 44 3 4 7 6 7 5 1
-2 11 -15 24 -29z m790 -56 c11 -32 22 -69 24 -83 2 -15 11 -26 23 -29 27 -5
46 -33 33 -48 -15 -18 -97 -62 -102 -55 -2 4 -7 26 -11 50 -5 30 -14 48 -32
59 -14 9 -29 27 -34 41 -8 19 -12 22 -24 12 -7 -6 -26 -10 -42 -8 -22 2 -29 9
-31 29 -3 22 3 29 33 43 131 62 137 62 163 -11z m296 41 c16 -15 22 -44 10
-44 -8 0 -43 43 -44 53 0 12 18 8 34 -9z m2085 -15 c13 -11 29 -19 36 -19 14
0 95 -78 95 -91 0 -17 -29 -21 -60 -11 -20 7 -32 7 -36 1 -3 -6 -12 -2 -21 10
-8 12 -20 21 -27 21 -8 0 -17 7 -20 16 -3 9 -13 14 -21 11 -8 -4 -16 2 -20 14
-7 22 -35 26 -35 5 0 -17 39 -65 95 -117 39 -36 39 -38 21 -57 -18 -21 -18
-21 -67 10 -27 16 -57 41 -67 54 -9 14 -30 41 -45 62 -20 26 -25 38 -15 41 7
2 21 10 30 18 9 8 22 12 29 7 9 -5 11 -1 7 13 -4 16 -1 19 11 16 10 -2 23 3
31 12 15 18 42 12 79 -16z m-3259 -24 c0 -8 -2 -15 -4 -15 -2 0 -6 7 -10 15
-3 8 -1 15 4 15 6 0 10 -7 10 -15z m114 1 c20 8 25 -29 7 -46 -14 -13 -14 -15
2 -18 9 -2 17 -7 18 -10 0 -4 2 -15 4 -24 2 -10 0 -18 -4 -18 -11 0 -6 -62 7
-86 6 -12 7 -26 2 -34 -7 -12 -10 -11 -16 5 -4 11 -11 23 -16 26 -9 6 -16 43
-23 119 -3 25 -9 46 -15 48 -14 5 -12 39 3 45 6 2 13 0 15 -4 2 -4 9 -6 16 -3z
m-1383 -73 c19 -40 44 -98 54 -130 10 -32 26 -74 36 -94 27 -52 24 -75 -8 -87
-102 -38 -173 -52 -173 -34 0 5 27 21 60 37 32 15 61 34 64 41 3 7 -17 57 -44
113 -27 55 -52 111 -56 125 -10 40 -45 38 -81 -4 -15 -18 -33 -29 -45 -27 -29
3 -45 -49 -19 -63 20 -10 41 4 41 29 0 21 30 51 50 51 10 0 25 -15 34 -34 20
-42 20 -50 1 -66 -8 -7 -15 -19 -15 -26 0 -11 6 -11 27 -3 25 9 31 7 55 -20
16 -17 28 -37 28 -44 0 -15 -175 -115 -217 -123 -29 -6 -31 -4 -48 42 -9 27
-30 82 -46 121 -41 102 -37 123 28 157 18 9 48 30 66 46 37 32 121 69 152 67
14 -2 30 -23 56 -74z m543 52 c3 -9 -1 -18 -10 -22 -19 -7 -28 2 -21 22 8 19
23 19 31 0z m681 -20 c0 -19 3 -35 8 -35 4 0 5 -4 2 -10 -3 -5 -1 -10 6 -10 7
0 9 -9 6 -22 -4 -12 -1 -29 5 -37 10 -13 10 -14 -2 -3 -19 17 -33 15 -26 -3 3
-8 2 -15 -2 -15 -15 0 -37 36 -39 65 -1 17 0 24 3 18 10 -24 23 -13 18 14 -6
31 3 73 14 73 5 0 8 -16 7 -35z m71 -50 c-3 -8 -2 -15 2 -15 5 0 16 -24 27
-52 10 -29 27 -65 37 -81 l20 -27 -31 -6 c-17 -4 -34 -5 -38 -3 -4 2 -8 31 -9
64 -2 66 -7 91 -17 101 -11 11 -8 34 4 34 6 0 9 -7 5 -15z m332 -18 c12 -18
22 -40 22 -49 0 -18 -36 -44 -73 -53 -23 -6 -27 -3 -36 32 -15 54 -14 81 7 92
31 19 56 12 80 -22z m-142 -62 c8 -34 -1 -55 -25 -55 -26 0 -49 63 -31 85 16
20 48 3 56 -30z m2893 -24 c34 -39 91 -99 127 -135 36 -35 63 -69 60 -74 -3
-5 -59 -44 -123 -87 -65 -43 -130 -86 -145 -97 -15 -10 -30 -18 -32 -18 -7 0
-76 102 -76 112 0 5 18 5 39 2 30 -5 45 -2 67 14 16 11 55 36 87 56 31 20 57
40 57 46 0 14 3 15 -96 -32 -49 -23 -110 -43 -135 -46 -43 -4 -47 -2 -82 39
-20 23 -37 49 -37 56 0 8 34 55 76 106 42 51 82 100 88 110 23 36 60 21 125
-52z m-1199 -11 c22 -33 46 -63 54 -67 7 -4 25 -32 39 -60 14 -29 36 -63 48
-75 30 -32 133 -189 139 -213 4 -13 17 -22 40 -26 95 -16 160 -91 160 -185 0
-67 -54 -144 -101 -144 -10 0 -63 -27 -117 -59 -123 -73 -157 -91 -175 -91
-12 0 -87 144 -87 167 0 10 53 43 69 43 6 0 11 -5 11 -11 0 -24 44 -109 56
-109 18 0 18 2 -6 80 -11 36 -20 69 -20 73 0 4 14 21 32 37 l31 29 27 -38 c42
-57 77 -81 121 -81 33 0 41 5 54 31 34 65 -24 214 -64 165 -8 -10 -7 -17 3
-25 21 -17 50 -97 43 -116 -8 -19 -30 -19 -68 1 -28 14 -49 48 -72 117 -6 16
-10 15 -47 -8 -22 -14 -45 -23 -50 -20 -20 12 -9 34 40 78 30 27 50 53 50 66
0 19 -8 15 -64 -30 -36 -28 -67 -58 -70 -65 -11 -29 -49 -14 -102 41 -53 55
-74 67 -74 42 0 -22 89 -171 115 -192 32 -26 32 -45 0 -75 -33 -31 -40 -23
-75 82 -16 45 -39 111 -53 146 l-26 62 36 15 c19 8 57 33 83 55 26 22 55 40
63 40 9 0 19 5 22 10 11 17 44 11 56 -11 8 -16 8 -27 -2 -45 -14 -28 -31 -30
-53 -9 -20 20 -23 19 -40 -14 -11 -21 -12 -31 -3 -40 17 -17 54 -13 69 8 8 11
30 22 51 26 41 8 46 21 18 56 -10 13 -23 38 -28 54 -13 40 -38 36 -116 -15
-32 -22 -70 -40 -83 -40 -13 0 -24 -4 -24 -10 0 -18 -47 -22 -78 -6 -25 13
-31 13 -35 2 -9 -23 -62 -29 -96 -11 -50 25 -90 130 -77 200 6 30 17 42 74 79
185 119 245 155 253 150 5 -3 27 -32 49 -64z m-1154 25 c13 -8 28 -32 33 -52
14 -50 14 -130 0 -139 -8 -5 -8 -9 1 -14 9 -6 13 -50 14 -161 l1 -154 -55 -3
c-30 -1 -64 -7 -75 -12 -33 -16 -187 -50 -227 -50 -50 0 -75 26 -83 87 -3 26
-13 87 -21 134 -8 47 -17 122 -21 166 -7 90 -2 98 85 149 53 31 65 24 66 -41
1 -36 5 -45 19 -45 9 0 17 3 18 8 0 4 2 19 3 34 2 26 27 61 71 101 16 15 31
17 84 13 35 -3 74 -12 87 -21z m-1414 -26 c29 -12 69 -74 98 -149 11 -30 27
-68 35 -85 36 -79 36 -79 -62 -128 -88 -44 -218 -86 -230 -74 -16 16 -113 255
-113 278 0 19 -6 28 -21 32 -38 10 -17 40 56 79 100 53 187 70 237 47z m-337
-63 c-31 -31 -30 -60 3 -64 17 -3 22 -10 22 -31 0 -16 7 -34 15 -41 8 -7 15
-22 15 -34 1 -11 9 -39 20 -61 11 -22 20 -47 20 -55 0 -8 12 -35 25 -59 14
-24 24 -45 23 -46 -2 -1 -24 -5 -49 -9 -44 -6 -48 -5 -67 21 -10 15 -36 80
-57 143 -21 63 -46 131 -56 151 -18 36 -18 36 6 59 14 13 25 29 25 36 0 8 12
20 28 28 22 12 29 12 40 2 11 -11 9 -18 -13 -40z m781 -14 c9 -56 9 -57 -14
-59 -16 -1 -22 3 -18 13 3 7 -3 18 -12 23 -14 8 -15 12 -4 22 6 7 12 23 12 36
0 13 6 23 13 23 8 0 17 -22 23 -58z m308 -144 c2 -13 12 -54 20 -93 9 -38 16
-79 16 -91 0 -11 8 -36 17 -54 9 -19 16 -46 16 -62 0 -15 3 -28 7 -28 4 0 20
-28 35 -62 l28 -62 -23 -18 c-12 -10 -35 -18 -52 -18 -16 0 -41 -6 -56 -14
-15 -7 -49 -16 -77 -20 -27 -3 -79 -15 -113 -26 -35 -11 -77 -20 -92 -20 -25
0 -30 5 -34 33 -3 17 -15 86 -27 152 -12 66 -23 129 -24 140 -5 27 -25 188
-25 197 0 8 70 24 210 48 149 25 169 25 174 -2z m2709 0 c18 -14 59 -101 75
-161 12 -42 -3 -67 -40 -67 -11 0 -32 -8 -46 -18 -36 -24 -111 -56 -117 -50
-3 2 -8 27 -12 54 -7 58 -59 144 -86 144 -19 0 -18 -4 15 -52 10 -14 18 -37
18 -51 0 -20 -6 -27 -31 -32 -42 -9 -54 5 -76 88 -21 75 -36 90 -41 38 -3 -32
23 -110 55 -159 l14 -23 46 27 46 27 19 -23 c10 -13 17 -28 15 -34 -6 -21
-121 -69 -167 -70 -43 -1 -45 0 -70 46 -14 26 -37 68 -53 92 -15 25 -29 62
-30 82 -2 37 -2 37 92 86 78 41 100 48 130 43 20 -3 68 1 106 9 90 18 117 19
138 4z m-1497 -30 c9 -18 48 -79 86 -135 38 -56 67 -107 63 -113 -3 -6 -23
-19 -43 -29 -20 -10 -81 -50 -135 -87 -54 -38 -114 -78 -132 -89 l-35 -20 -17
24 c-37 52 -112 197 -113 218 0 14 15 34 41 55 23 18 60 50 83 70 23 20 54 42
69 47 15 6 39 28 54 50 34 49 57 51 79 9z m-2438 -31 c6 -7 27 -56 45 -108 19
-52 37 -101 41 -110 7 -17 -41 -43 -101 -53 -17 -3 -55 -17 -84 -31 -29 -14
-61 -23 -71 -19 -22 7 -25 -18 -3 -36 14 -12 23 -10 55 9 8 5 38 20 65 32 90
42 85 41 74 11 -6 -14 -9 -47 -7 -71 1 -25 -2 -46 -7 -47 -6 -1 -39 -8 -74
-15 -46 -10 -68 -20 -79 -37 -20 -30 -9 -39 24 -17 16 10 30 13 35 8 5 -5 32
-6 59 -3 53 7 60 5 60 -16 0 -15 -192 -79 -213 -71 -7 3 -23 45 -35 94 -12 48
-42 148 -67 222 -32 99 -42 138 -34 148 22 25 106 66 194 94 105 33 109 33
123 16z m4499 -19 c-3 -8 -6 -5 -6 6 -1 11 2 17 5 13 3 -3 4 -12 1 -19z
m-1893 -13 c3 -8 1 -15 -4 -15 -6 0 -10 7 -10 15 0 8 2 15 4 15 2 0 6 -7 10
-15z m-1843 -82 c38 -23 52 -60 44 -117 -7 -42 -5 -48 19 -67 35 -28 31 -59
-9 -72 -16 -5 -37 -16 -45 -23 -9 -7 -36 -16 -60 -20 -25 -4 -53 -11 -63 -16
-33 -17 -76 -12 -102 12 -29 28 -65 117 -65 163 0 59 58 110 156 141 65 19 90
19 125 -1z m3323 -136 c26 -34 136 -285 136 -310 0 -9 -18 -19 -42 -25 -46
-12 -58 -5 -58 34 0 27 -29 127 -41 139 -6 5 -13 5 -19 -1 -6 -6 -2 -32 12
-73 27 -78 30 -74 -120 -126 -147 -51 -157 -51 -189 5 -14 25 -34 57 -44 72
-11 14 -19 33 -19 41 0 18 49 42 114 57 27 6 61 19 75 29 14 10 58 34 98 53
51 25 69 38 61 46 -10 10 -66 -13 -92 -38 -5 -5 -15 -6 -24 -3 -11 5 -13 3 -7
-7 6 -10 4 -12 -8 -7 -10 3 -17 2 -17 -4 0 -6 -5 -7 -10 -4 -11 7 -82 -13 -90
-25 -9 -14 -102 -60 -110 -55 -14 9 -33 76 -24 84 5 4 27 13 49 20 22 8 99 40
170 72 72 32 140 59 152 59 13 0 32 -13 47 -33z m-3739 1 c38 -30 69 -105 95
-229 12 -57 29 -122 37 -144 19 -53 43 -137 43 -153 0 -12 -56 -42 -77 -42 -5
0 -14 14 -20 31 -12 31 -13 31 -60 24 -71 -10 -94 -28 -88 -68 5 -30 2 -35
-28 -52 -19 -10 -41 -16 -48 -13 -9 3 -27 60 -47 144 -18 77 -38 149 -43 162
-15 39 -49 204 -49 242 0 19 4 40 8 46 14 21 58 38 142 55 111 22 103 22 135
-3z m1660 -32 c25 -25 72 -161 82 -237 7 -56 0 -61 -97 -80 -36 -6 -101 -23
-144 -36 -44 -13 -98 -26 -121 -30 l-41 -5 -31 68 c-42 93 -63 170 -59 224 l2
45 50 7 c27 4 108 20 179 37 72 16 136 30 143 30 7 1 24 -10 37 -23z m653 -31
c15 -25 70 -103 122 -173 52 -70 104 -144 114 -165 23 -44 19 -50 -64 -108
-30 -22 -93 -71 -140 -109 -47 -39 -92 -70 -102 -70 -21 0 -93 100 -138 190
-18 36 -42 76 -55 90 -23 26 -67 105 -84 152 -10 26 -7 29 47 62 31 19 98 66
147 105 50 39 98 71 108 71 11 0 29 -18 45 -45z m497 -15 c15 -29 15 -31 -10
-40 -43 -16 -55 -12 -55 18 0 55 41 69 65 22z m-2294 -131 c16 -8 18 -13 8
-25 -6 -8 -22 -14 -35 -14 -14 0 -24 -6 -24 -15 0 -8 6 -12 14 -9 23 9 55 -64
54 -122 -1 -29 6 -63 16 -83 15 -28 16 -36 4 -47 -13 -13 -191 -64 -225 -64
-25 0 -33 19 -71 155 -51 184 -55 166 46 197 123 39 179 46 213 27z m688 -48
c23 -45 38 -141 22 -141 -7 0 -21 9 -33 19 -17 16 -24 18 -45 8 -21 -9 -27 -8
-39 8 -12 16 -12 21 -2 24 15 5 37 32 38 46 0 6 -5 3 -10 -5 -8 -13 -10 -12
-10 3 0 9 8 17 18 18 10 0 12 3 5 6 -7 2 -13 13 -13 24 0 12 5 16 15 13 11 -5
13 -2 9 10 -12 32 27 4 45 -33z m-209 -68 c4 -37 19 -124 33 -193 41 -201 43
-226 18 -239 -24 -13 -27 -31 -9 -49 14 -14 38 -103 31 -114 -2 -5 -24 -8 -49
-8 -49 0 -56 14 -29 60 23 40 19 53 -12 45 -57 -14 -182 -67 -208 -87 -26 -20
-27 -22 -9 -35 13 -9 57 -13 156 -13 117 0 138 -2 138 -15 0 -22 -33 -32 -168
-51 -103 -14 -123 -15 -148 -3 -32 16 -30 3 -68 359 -9 85 -21 190 -27 233 -6
43 -8 81 -4 85 3 4 28 7 53 8 78 1 160 23 167 44 6 18 7 18 26 -1 22 -22 39
-17 39 11 0 23 40 54 53 41 5 -5 13 -40 17 -78z m-180 37 c0 -5 -6 -10 -12
-10 -7 0 -24 -3 -38 -6 -24 -5 -24 -5 -6 10 22 18 56 21 56 6z m2544 -101 c23
-52 59 -124 79 -160 20 -36 37 -70 37 -75 0 -14 -102 -64 -129 -64 -17 0 -20
4 -13 16 5 9 4 35 -5 67 -11 44 -11 54 2 74 8 12 15 30 15 40 0 15 -3 15 -18
-5 -24 -31 -35 -18 -58 71 -10 37 -24 67 -31 67 -20 0 -23 -16 -8 -46 8 -16
20 -54 28 -84 8 -30 22 -73 31 -94 15 -35 15 -41 1 -62 -14 -22 -13 -24 7 -35
l22 -12 -27 -14 c-15 -7 -46 -17 -69 -22 -24 -5 -82 -21 -131 -35 -135 -40
-128 -43 -186 86 -20 45 -47 99 -59 118 -29 47 -28 57 11 80 41 26 51 25 43
-2 -12 -40 -19 -98 -12 -98 4 0 16 8 27 19 18 16 19 23 9 66 -6 26 -9 48 -8
49 2 1 17 11 35 23 18 13 34 19 36 15 6 -9 22 -182 19 -202 -3 -24 50 -130 66
-130 7 0 11 6 8 13 -2 6 -10 29 -17 51 -12 35 -11 40 6 52 36 27 55 17 81 -41
26 -56 44 -71 44 -35 0 22 -73 223 -109 300 l-21 45 6 -45 c4 -25 15 -74 26
-108 22 -73 20 -87 -16 -94 -33 -7 -42 5 -51 69 -6 44 -4 54 9 59 15 6 15 10
-4 41 -25 42 -26 72 -2 79 9 3 26 10 37 14 19 9 158 45 200 53 34 6 45 -7 89
-104z m-3934 71 c0 -5 -2 -10 -4 -10 -3 0 -8 5 -11 10 -3 6 -1 10 4 10 6 0 11
-4 11 -10z m280 -60 c11 -11 22 -30 25 -42 5 -24 23 -98 32 -135 6 -26 -36
-58 -65 -49 -27 9 -68 90 -83 164 -11 54 -11 64 1 72 25 16 69 11 90 -10z
m-129 -32 c6 -24 13 -52 15 -63 6 -38 31 -131 37 -142 6 -9 -22 -29 -28 -21
-19 27 -71 165 -79 211 -8 43 -2 57 24 57 14 0 22 -12 31 -42z m2375 -20 c19
-37 19 -38 -21 -38 -31 0 -35 3 -35 25 0 14 -7 28 -15 31 -8 4 -15 10 -15 15
0 5 7 9 15 9 8 0 15 5 15 12 0 16 39 -22 56 -54z m-2488 30 c14 -26 92 -249
92 -261 0 -5 -21 -6 -47 -4 -41 3 -47 7 -44 23 8 42 2 93 -14 117 -9 15 -20
41 -24 59 -5 18 -11 44 -16 57 -6 20 -4 23 9 18 9 -4 16 -2 16 3 0 18 16 10
28 -12z m4573 2 c25 -14 49 -62 89 -183 33 -97 33 -99 14 -117 -18 -17 -139
-48 -429 -111 l-99 -21 -18 22 c-22 28 -44 100 -53 176 -4 33 -13 69 -21 81
-8 12 -14 29 -14 36 0 17 28 43 58 52 19 5 25 1 37 -28 8 -19 15 -52 16 -73 2
-22 11 -51 20 -65 10 -14 22 -48 26 -75 7 -40 12 -50 31 -52 12 -2 22 1 22 7
0 5 -18 59 -41 120 -52 144 -58 176 -32 190 11 5 60 15 109 22 49 7 112 15
139 19 78 11 125 11 146 0z m-2303 -115 c24 -61 61 -150 81 -200 55 -129 58
-150 27 -170 -14 -9 -44 -23 -68 -30 -24 -7 -67 -22 -96 -34 -84 -34 -85 -33
-122 71 -25 72 -29 93 -18 99 7 4 27 20 45 36 17 16 54 37 81 46 54 20 99 57
69 57 -18 0 -197 -77 -211 -91 -15 -14 -22 -11 -34 16 -17 37 -15 44 19 76 38
36 33 45 -15 28 -38 -14 -52 -9 -43 15 4 11 184 76 211 76 19 0 0 -23 -34 -40
-22 -11 -40 -24 -40 -29 0 -18 29 -19 61 -3 30 15 34 21 33 55 -1 21 -4 40 -7
44 -3 3 -56 -12 -117 -33 -69 -24 -114 -34 -120 -28 -5 5 -16 25 -24 45 l-15
36 117 28 c64 15 124 31 132 36 32 19 46 2 88 -106z m-449 20 c25 -81 19 -108
-16 -71 -13 14 -28 26 -33 26 -6 0 -10 14 -10 31 0 24 4 30 15 25 9 -3 15 0
15 9 0 8 -5 15 -11 15 -8 0 -8 5 1 15 7 8 14 15 16 15 2 0 12 -29 23 -65z
m-68 22 c-10 -9 -11 -8 -5 6 3 10 9 15 12 12 3 -3 0 -11 -7 -18z m809 -63 c0
-8 -8 -14 -19 -14 -10 0 -21 -8 -23 -17 -4 -15 -16 -18 -69 -17 -75 2 -108 9
-123 25 -8 9 -8 10 1 5 7 -4 22 -2 33 4 20 11 106 25 168 27 21 1 32 -4 32
-13z m515 -71 c4 -27 11 -56 16 -65 7 -13 4 -22 -10 -35 -18 -15 -18 -18 -4
-28 9 -7 24 -45 34 -85 18 -68 30 -89 53 -90 9 0 3 47 -14 105 -7 22 -13 51
-14 65 -2 14 -8 38 -14 53 -7 16 -12 35 -12 42 0 24 43 45 108 51 57 6 65 5
88 -17 36 -33 52 -67 63 -135 6 -33 13 -75 17 -95 7 -42 10 -40 -146 -84 -52
-15 -124 -35 -160 -46 -36 -10 -79 -19 -97 -19 -29 0 -35 6 -56 48 -14 26 -32
70 -41 98 -9 28 -28 62 -41 74 -14 13 -25 27 -25 30 0 11 101 71 110 65 15 -9
22 -65 10 -80 -7 -9 -8 -15 -1 -20 6 -3 20 -37 32 -76 11 -38 25 -72 31 -75
23 -15 24 17 1 106 -13 52 -25 119 -26 149 -2 52 -1 54 38 82 22 15 43 28 46
29 4 0 10 -21 14 -47z m-445 -7 c0 -2 -7 -9 -15 -16 -13 -11 -14 -10 -9 4 5
14 24 23 24 12z m-1476 -38 c3 -18 7 -64 10 -103 l5 -70 -19 40 c-11 22 -24
47 -29 55 -5 8 -12 23 -15 33 -3 9 -10 17 -15 17 -16 0 -22 -36 -11 -64 5 -15
10 -38 10 -50 0 -14 13 -34 31 -49 44 -36 34 -57 -28 -57 l-48 0 -23 68 c-13
37 -29 83 -35 103 -6 20 -19 42 -29 48 -33 20 -34 -17 -3 -99 15 -41 28 -91
29 -110 1 -30 -3 -35 -32 -44 -58 -17 -74 0 -107 109 -31 107 -30 115 22 151
30 20 126 42 213 47 25 2 50 4 57 5 7 1 14 -13 17 -30z m-850 -110 c14 -40 34
-109 45 -154 11 -44 23 -87 26 -96 4 -10 -3 -19 -24 -28 -41 -17 -56 -9 -59
31 -1 18 -8 39 -14 46 -6 7 -8 13 -4 13 3 0 -3 23 -14 50 -11 28 -20 59 -20
68 0 22 -42 70 -48 54 -4 -12 42 -167 69 -230 22 -51 16 -66 -34 -76 -44 -9
-137 -48 -137 -58 0 -15 -28 -8 -34 9 -4 10 -20 79 -36 155 -16 75 -31 141
-32 147 -5 17 87 86 133 100 24 7 55 19 69 27 14 7 39 14 56 14 31 0 33 -3 58
-72z m3678 -33 c15 -22 32 -60 37 -85 5 -25 15 -65 21 -90 18 -66 18 -111 0
-120 -8 -4 -58 -18 -110 -31 -52 -12 -131 -33 -174 -46 -137 -40 -145 -36
-192 107 -56 173 -57 204 -1 215 18 4 52 13 77 21 25 7 59 15 75 16 17 1 39 8
50 15 30 18 126 42 160 40 22 -1 36 -12 57 -42z m-1244 -19 c15 -8 35 -22 44
-32 18 -21 68 -147 68 -173 0 -17 -56 -79 -64 -70 -13 15 -30 59 -46 121 -10
39 -23 75 -28 80 -14 14 -56 0 -44 -15 9 -11 73 -190 69 -193 -1 -1 -25 -5
-53 -9 l-50 -6 -32 69 c-18 38 -32 76 -32 84 0 30 -12 48 -31 48 -24 0 -24 -2
5 -55 14 -24 32 -67 40 -95 14 -48 14 -52 -4 -70 -17 -17 -98 -46 -105 -38 -9
11 -65 178 -65 195 0 11 9 28 20 38 11 10 20 28 20 40 0 33 15 41 120 68 116
29 134 31 168 13z m-1258 -81 c0 -18 -9 -21 -67 -28 -51 -6 -56 8 -10 28 43
19 77 19 77 0z m-302 -92 c16 -42 82 -281 82 -296 0 -7 -15 -18 -32 -25 -42
-16 -53 -2 -62 76 -4 31 -10 79 -13 105 -5 46 -35 99 -47 86 -4 -3 0 -19 9
-35 20 -39 20 -128 -1 -148 -22 -22 -47 -20 -64 7 -26 40 -50 99 -50 123 0 18
-6 24 -21 24 -24 0 -23 -4 10 -85 11 -27 22 -62 25 -76 3 -14 15 -37 26 -52
l21 -26 36 21 36 22 18 -23 c24 -30 24 -38 -2 -52 -35 -18 -151 -49 -185 -49
-36 0 -44 13 -44 68 0 20 -9 73 -19 117 -28 120 -34 180 -18 193 7 6 62 18
122 27 61 9 115 18 120 20 27 10 43 3 53 -22z m2196 -8 c18 -19 37 -35 42 -35
5 -1 21 -11 36 -23 38 -31 71 -111 72 -177 l1 -55 -75 -37 c-90 -45 -214 -88
-252 -88 -33 0 -49 23 -73 105 -10 33 -28 94 -41 134 -41 128 -41 137 -3 150
17 6 49 11 69 11 20 0 68 11 106 25 38 13 73 24 78 25 4 0 23 -16 40 -35z
m-3377 -107 c-3 -8 -6 -5 -6 6 -1 11 2 17 5 13 3 -3 4 -12 1 -19z m2996 -147
c17 -6 17 -8 4 -19 -22 -19 -87 -28 -87 -12 0 6 9 14 20 17 11 3 20 9 20 14 0
11 17 11 43 0z"/>
<path d="M3803 4987 c-41 -8 -53 -15 -53 -29 0 -16 7 -17 63 -12 137 13 162
19 165 37 3 15 -5 17 -60 15 -35 0 -87 -6 -115 -11z"/>
<path d="M3956 4853 c-21 -11 -44 -14 -85 -9 -60 6 -106 -8 -106 -34 0 -12 16
-15 89 -13 93 3 125 14 146 53 13 25 -2 26 -44 3z"/>
<path d="M860 4879 c0 -5 5 -7 10 -4 6 3 10 8 10 11 0 2 -4 4 -10 4 -5 0 -10
-5 -10 -11z"/>
<path d="M976 4801 c-4 -6 5 -27 21 -47 15 -20 29 -32 31 -26 5 16 -45 85 -52
73z"/>
<path d="M2470 4874 c0 -3 26 -57 57 -120 41 -80 63 -114 75 -114 23 0 23 8
-5 50 -12 19 -36 64 -52 100 -16 36 -33 71 -38 78 -10 12 -37 17 -37 6z"/>
<path d="M693 4778 c30 -79 72 -158 83 -158 16 0 18 13 5 38 -4 9 -16 35 -27
57 -10 22 -25 48 -33 58 -16 20 -35 23 -28 5z"/>
<path d="M507 4710 c-49 -31 -54 -41 -37 -85 11 -29 69 -105 81 -105 22 0 13
44 -18 90 -39 58 -39 81 -1 94 35 12 54 -4 84 -69 48 -108 81 -117 38 -11 -31
77 -58 116 -83 116 -9 0 -38 -13 -64 -30z"/>
<path d="M3090 4782 c0 -23 36 -45 61 -37 39 13 14 55 -33 55 -20 0 -28 -5
-28 -18z"/>
<path d="M3040 4745 c-14 -8 -32 -14 -41 -15 -24 0 -53 -26 -45 -39 5 -7 12
-9 19 -3 11 8 48 20 86 28 23 5 33 20 19 32 -9 7 -20 7 -38 -3z"/>
<path d="M3225 4660 c-11 -5 -64 -28 -117 -51 -54 -23 -98 -46 -98 -50 0 -5 4
-9 8 -9 18 0 183 60 211 76 51 30 48 57 -4 34z"/>
<path d="M3254 4540 c-5 -5 -27 -12 -49 -15 -22 -4 -50 -13 -62 -21 -12 -8
-29 -14 -38 -14 -25 0 -75 -29 -75 -44 0 -19 58 -11 82 11 18 16 20 16 40 -4
l21 -21 34 34 c23 23 43 34 63 34 34 0 38 10 12 33 -12 11 -22 13 -28 7z"/>
<path d="M3161 4397 c-50 -25 -30 -58 23 -37 17 6 26 16 24 27 -4 22 -18 25
-47 10z"/>
<path d="M4442 4594 c-8 -14 8 -26 95 -70 113 -58 123 -61 123 -40 0 8 -38 35
-85 60 -46 26 -87 51 -90 56 -10 15 -33 12 -43 -6z"/>
<path d="M4390 4485 c0 -8 140 -88 146 -83 2 3 -26 24 -64 47 -65 39 -82 47
-82 36z"/>
<path d="M130 4602 c0 -21 32 -51 48 -45 37 13 45 26 26 40 -19 14 -74 18 -74
5z"/>
<path d="M1000 4479 c0 -7 17 -31 38 -54 20 -23 42 -50 48 -60 10 -18 11 -18
37 1 14 10 29 25 32 33 5 13 3 13 -42 -6 -6 -2 -29 18 -49 46 -36 48 -64 65
-64 40z"/>
<path d="M1425 4481 c-3 -6 -5 -11 -3 -12 27 -6 38 -5 35 4 -5 15 -24 20 -32
8z"/>
<path d="M3893 4489 c-6 -8 -18 -29 -27 -46 -22 -43 -1 -45 39 -3 32 33 50 38
59 15 8 -21 72 -20 80 1 8 20 5 23 -25 30 -63 15 -115 16 -126 3z"/>
<path d="M2780 4501 c0 -23 14 -41 31 -41 24 0 24 12 1 33 -21 19 -32 22 -32
8z"/>
<path d="M2735 4440 c4 -6 11 -8 16 -5 14 9 11 15 -7 15 -8 0 -12 -5 -9 -10z"/>
<path d="M2665 4417 c-50 -20 -95 -47 -95 -57 0 -17 21 -11 69 17 76 44 89 64
26 40z"/>
<path d="M2933 4155 c7 -13 14 -20 15 -14 5 14 -6 39 -17 39 -5 0 -4 -11 2
-25z"/>
<path d="M2970 4161 c0 -5 5 -13 10 -16 6 -3 10 -2 10 4 0 5 -4 13 -10 16 -5
3 -10 2 -10 -4z"/>
<path d="M2885 4140 c4 -11 2 -20 -4 -20 -6 0 -11 5 -11 10 0 6 -8 10 -17 10
-13 0 -14 -3 -5 -12 19 -19 14 -28 -18 -28 -16 0 -30 -4 -30 -10 0 -17 46 -11
73 10 14 11 32 20 41 20 19 0 21 11 4 28 -20 20 -40 15 -33 -8z"/>
<path d="M2778 4123 c-10 -2 -18 -9 -18 -15 0 -5 7 -7 16 -4 9 3 20 6 25 6 5
0 9 5 9 10 0 10 -3 11 -32 3z"/>
<path d="M2710 4070 c0 -4 -10 -10 -22 -13 -45 -12 -9 -17 38 -6 64 15 72 24
24 25 -22 1 -40 -2 -40 -6z"/>
<path d="M2270 4391 c0 -10 20 -59 59 -143 20 -44 20 -50 6 -71 -17 -27 -12
-37 23 -37 22 0 24 3 18 33 -17 78 -18 97 -6 112 7 8 16 12 21 9 13 -8 10 9
-5 29 -9 12 -16 14 -21 8 -8 -14 -45 5 -45 23 0 13 -31 46 -43 46 -4 0 -7 -4
-7 -9z"/>
<path d="M2160 4326 c0 -9 11 -39 25 -66 29 -57 32 -92 9 -114 -25 -26 -49 -4
-90 84 -21 44 -41 80 -45 80 -20 0 -17 -42 4 -81 72 -132 92 -148 145 -109 53
39 54 57 13 140 -35 71 -61 99 -61 66z"/>
<path d="M1923 4247 c2 -26 7 -50 11 -54 12 -12 46 -94 46 -112 0 -9 12 -28
25 -43 52 -60 47 -24 -16 121 -28 64 -55 120 -60 125 -5 6 -7 -10 -6 -37z"/>
<path d="M804 4248 c-6 -10 20 -38 36 -38 4 0 17 11 30 25 l23 25 -41 0 c-22
0 -44 -5 -48 -12z"/>
<path d="M750 4230 c-8 -5 -33 -16 -54 -25 -49 -19 -41 -31 11 -15 70 23 84
30 78 40 -7 12 -15 12 -35 0z"/>
<path d="M885 4156 c-11 -7 -29 -15 -40 -17 -11 -3 -20 -11 -20 -19 0 -11 10
-14 40 -11 52 4 75 17 75 41 0 24 -26 26 -55 6z"/>
<path d="M796 4055 c-19 -15 -19 -16 2 -54 12 -21 21 -50 20 -62 -4 -36 44
-39 76 -5 13 14 26 26 30 26 4 0 22 7 41 14 25 11 33 19 29 31 -9 22 -45 13
-91 -22 -46 -35 -68 -23 -68 37 0 48 -10 57 -39 35z"/>
<path d="M3457 4264 c-4 -4 4 -20 18 -35 13 -16 36 -56 52 -88 29 -61 42 -71
62 -48 8 10 6 19 -9 35 -11 11 -32 43 -46 69 -33 61 -60 84 -77 67z"/>
<path d="M3241 4097 c-16 -20 -7 -83 16 -109 9 -10 31 -22 50 -29 29 -9 37 -9
44 2 11 18 11 21 -1 39 -8 13 -13 13 -31 2 -30 -19 -51 4 -59 64 -4 42 -7 45
-19 31z"/>
<path d="M3097 4020 c-22 -26 -21 -29 2 -23 14 4 28 -6 50 -37 17 -23 33 -51
36 -61 4 -10 15 -19 26 -19 25 0 24 12 -5 39 -13 12 -35 45 -47 72 -26 54 -36
59 -62 29z"/>
<path d="M2928 3934 c-29 -15 -32 -22 -28 -64 5 -57 88 -179 111 -164 5 3 9
20 9 38 0 27 -4 32 -22 32 -25 -1 -68 63 -68 101 0 25 30 46 53 37 18 -6 37
-47 37 -79 0 -18 4 -22 19 -18 14 3 22 -4 32 -26 14 -31 34 -45 50 -35 16 9
10 21 -42 91 -81 108 -97 117 -151 87z"/>
<path d="M4050 4261 c-12 -7 -116 -24 -155 -26 -11 0 -25 -16 -25 -29 0 -5 15
-5 33 -2 69 15 154 18 161 7 14 -22 26 -10 26 24 0 36 -11 43 -40 26z"/>
<path d="M4068 4135 c-2 -3 -40 -10 -84 -16 -82 -11 -94 -18 -94 -56 0 -13 -4
-23 -10 -23 -15 0 -12 -36 5 -50 13 -11 15 -8 15 14 0 15 5 36 10 46 11 20 66
39 111 38 27 -1 79 28 79 43 0 9 -23 12 -32 4z"/>
<path d="M4155 3930 c-13 -20 86 -132 102 -116 4 3 -1 14 -9 23 -9 10 -24 34
-33 53 -24 47 -46 62 -60 40z"/>
<path d="M4085 3850 c3 -5 11 -10 16 -10 6 0 7 5 4 10 -3 6 -11 10 -16 10 -6
0 -7 -4 -4 -10z"/>
<path d="M1453 4183 c-7 -3 -13 -11 -13 -19 0 -8 -4 -14 -10 -14 -22 0 -26 -2
-47 -22 -37 -35 -26 -39 27 -10 l49 26 25 -23 c13 -12 31 -42 41 -67 15 -39
15 -45 2 -59 -23 -23 -41 -18 -55 15 -14 30 -35 39 -47 20 -4 -6 10 -33 31
-60 l38 -50 31 30 c17 17 36 30 43 30 21 0 13 25 -33 113 -45 84 -58 98 -82
90z"/>
<path d="M3732 3800 c-28 -26 -28 -36 3 -56 22 -14 26 -14 54 2 l30 17 -22 28
c-27 34 -37 35 -65 9z"/>
<path d="M497 3834 c-60 -39 -67 -48 -41 -58 17 -7 32 2 87 51 64 56 39 60
-46 7z"/>
<path d="M2390 3735 c-5 -14 -15 -25 -22 -25 -7 0 -24 -9 -37 -19 -23 -17 -23
-20 -9 -35 22 -22 38 -20 38 3 0 30 28 53 50 41 28 -15 40 -12 40 8 0 18 -29
52 -44 52 -3 0 -11 -11 -16 -25z"/>
<path d="M4660 3878 c1 -18 20 -49 58 -94 18 -22 52 -67 77 -101 38 -53 65
-77 65 -58 0 17 -178 265 -191 265 -5 0 -9 -6 -9 -12z"/>
<path d="M4538 3573 c-27 -7 -22 -19 17 -43 28 -17 43 -20 80 -15 60 9 57 28
-6 48 -52 17 -61 18 -91 10z"/>
<path d="M1735 3740 c-7 -11 8 -42 36 -79 10 -13 16 -28 12 -33 -3 -6 0 -9 6
-7 18 6 18 9 -9 71 -25 58 -33 67 -45 48z"/>
<path d="M1645 3628 c4 -18 11 -34 16 -36 5 -2 9 -10 9 -17 0 -15 38 -40 47
-31 3 2 -3 17 -14 33 -10 15 -24 40 -31 56 -17 39 -35 35 -27 -5z"/>
<path d="M3607 3477 c-2 -7 -31 -26 -63 -42 -70 -35 -94 -58 -94 -86 0 -26 69
-119 88 -119 20 0 160 97 172 119 14 27 13 31 -10 31 -11 0 -20 7 -20 15 0 8
-4 15 -9 15 -5 0 -14 13 -21 30 -16 38 -36 55 -43 37z m51 -78 c7 -11 10 -24
7 -29 -9 -14 -122 -90 -133 -90 -18 0 -45 53 -35 68 11 19 124 79 138 75 6 -2
16 -12 23 -24z"/>
<path d="M682 3661 c-37 -23 56 -186 102 -179 33 5 29 25 -10 48 -35 22 -70
81 -59 100 6 10 -4 40 -14 40 -3 0 -12 -4 -19 -9z"/>
<path d="M880 3542 c0 -12 19 -26 26 -19 2 2 -2 10 -11 17 -9 8 -15 8 -15 2z"/>
<path d="M4234 3515 c-30 -26 -30 -26 3 -44 30 -15 33 -14 33 9 0 11 7 20 15
20 13 0 14 4 5 20 -14 26 -21 25 -56 -5z"/>
<path d="M4163 3483 c-7 -2 -13 -11 -13 -19 0 -8 -4 -14 -9 -14 -5 0 -4 -11 2
-25 7 -14 19 -25 27 -25 11 0 12 3 3 8 -8 5 -9 19 -4 45 5 20 8 37 7 36 0 0
-7 -3 -13 -6z"/>
<path d="M4410 3310 c0 -5 5 -10 10 -10 6 0 10 5 10 10 0 6 -4 10 -10 10 -5 0
-10 -4 -10 -10z"/>
<path d="M4240 3210 c0 -5 7 -10 15 -10 8 0 15 5 15 10 0 6 -7 10 -15 10 -8 0
-15 -4 -15 -10z"/>
<path d="M1276 3482 c-3 -5 3 -18 14 -29 10 -12 16 -24 13 -27 -4 -3 -1 -6 5
-6 6 0 14 -10 18 -22 3 -12 13 -28 20 -36 8 -7 18 -21 23 -30 5 -9 13 -14 17
-9 4 4 1 15 -7 24 -22 28 -39 61 -39 78 0 8 -5 15 -10 15 -6 0 -15 11 -20 25
-10 25 -24 32 -34 17z"/>
<path d="M2860 3439 c0 -26 46 -100 96 -154 l46 -49 -22 -18 c-29 -24 -36 -23
-63 9 -65 79 -126 137 -156 150 -18 8 -35 12 -38 10 -7 -8 175 -202 203 -217
23 -13 28 -11 71 32 l45 46 -32 33 c-41 43 -115 128 -135 154 -12 16 -14 17
-15 4z"/>
<path d="M2646 3281 c-10 -15 21 -62 53 -82 39 -23 39 -13 2 39 -34 46 -47 56
-55 43z"/>
<path d="M2755 3110 c-17 -18 -16 -19 6 -24 13 -3 38 -4 56 -4 29 1 30 3 20
25 -13 29 -57 31 -82 3z"/>
<path d="M607 3415 c-4 -8 4 -22 16 -32 12 -10 31 -36 42 -58 20 -38 20 -39
23 -12 5 38 -35 117 -58 117 -10 0 -20 -7 -23 -15z"/>
<path d="M493 3385 c-3 -9 9 -44 27 -78 40 -76 42 -78 59 -68 15 10 7 43 -27
106 -28 53 -48 67 -59 40z"/>
<path d="M360 3360 c0 -5 5 -12 10 -15 6 -3 10 -15 10 -26 0 -38 71 -142 83
-122 9 15 -5 63 -19 63 -10 0 -14 13 -14 40 0 31 -3 38 -15 34 -8 -4 -17 1
-21 9 -6 17 -34 31 -34 17z"/>
<path d="M2012 3360 c-22 -36 6 -53 43 -26 16 12 17 16 6 30 -18 22 -34 20
-49 -4z"/>
<path d="M2125 3180 c-33 -35 -30 -43 14 -34 38 8 50 29 29 50 -12 12 -18 10
-43 -16z"/>
<path d="M1080 3093 c0 -22 2 -25 10 -13 13 20 13 40 0 40 -5 0 -10 -12 -10
-27z"/>
<path d="M2404 3079 c-44 -22 -52 -90 -16 -131 22 -26 92 -24 126 3 30 24 36
55 9 46 -88 -29 -104 -31 -114 -17 -5 8 -8 26 -7 40 3 23 6 25 51 23 47 -3 58
5 34 25 -20 17 -60 22 -83 11z"/>
<path d="M2266 3041 c-3 -4 -1 -23 4 -42 6 -18 8 -41 5 -50 -4 -10 4 -23 20
-33 13 -9 34 -34 45 -56 22 -42 40 -50 60 -25 10 12 7 21 -18 49 -17 19 -33
44 -37 55 -3 12 -10 21 -15 21 -4 0 -18 20 -30 45 -23 47 -26 50 -34 36z"/>
<path d="M2140 2943 c0 -33 37 -121 61 -145 21 -21 49 -30 49 -15 -1 19 -24
44 -38 41 -7 -1 -8 0 -2 3 22 10 6 52 -42 113 l-28 35 0 -32z"/>
<path d="M4031 3032 l-22 -17 84 -88 c79 -81 107 -101 107 -77 0 5 -25 38 -56
72 -31 35 -63 78 -71 96 -16 37 -14 37 -42 14z"/>
<path d="M3365 2988 c4 -13 19 -40 33 -62 56 -81 62 -92 62 -109 0 -10 4 -16
9 -13 4 3 25 -12 45 -34 33 -36 56 -50 56 -35 0 3 -11 28 -25 56 -62 121 -203
276 -180 197z"/>
<path d="M3335 2910 c-3 -5 -1 -10 4 -10 6 0 11 5 11 10 0 6 -2 10 -4 10 -3 0
-8 -4 -11 -10z"/>
<path d="M3240 2875 c-15 -18 -7 -45 14 -45 16 0 56 -62 56 -88 1 -15 77 -82
93 -82 12 0 -38 93 -68 127 -16 19 -37 48 -45 65 -18 37 -32 44 -50 23z"/>
<path d="M1624 2834 c-17 -8 -36 -27 -43 -40 -23 -52 48 -135 100 -119 20 7
23 26 4 27 -6 0 -22 9 -37 20 -45 32 -32 98 20 98 15 0 76 -61 100 -100 25
-41 29 -22 7 41 -30 85 -80 109 -151 73z"/>
<path d="M4575 2880 c-9 -15 14 -40 31 -33 10 4 11 10 3 24 -11 21 -24 24 -34
9z"/>
<path d="M4650 2840 c0 -5 5 -10 10 -10 6 0 10 5 10 10 0 6 -4 10 -10 10 -5 0
-10 -4 -10 -10z"/>
<path d="M984 2755 c-20 -27 -30 -33 -43 -26 -21 12 -81 -15 -81 -35 0 -18 20
-17 44 1 29 22 33 19 45 -30 12 -47 44 -85 71 -85 60 0 130 62 111 97 -5 10
-12 30 -16 46 -8 38 -40 67 -74 67 -22 0 -37 -9 -57 -35z m101 -19 c22 -34 15
-75 -16 -99 -47 -34 -79 -9 -81 64 -2 57 67 81 97 35z"/>
<path d="M2847 2639 c-15 -9 -12 -16 34 -60 38 -37 49 -54 44 -69 -4 -14 -2
-20 9 -20 8 0 27 -16 42 -35 15 -20 29 -34 31 -31 6 6 -46 106 -55 106 -8 0
-21 23 -48 83 -18 39 -27 43 -57 26z"/>
<path d="M2520 2696 c0 -8 9 -30 19 -48 11 -18 23 -50 26 -70 4 -21 11 -38 16
-38 5 0 28 -18 51 -40 23 -21 44 -38 46 -36 4 5 -36 82 -78 146 -19 30 -40 64
-46 74 -13 25 -34 32 -34 12z"/>
<path d="M4130 2519 c0 -5 5 -7 10 -4 6 3 10 8 10 11 0 2 -4 4 -10 4 -5 0 -10
-5 -10 -11z"/>
<path d="M450 2571 c-42 -9 -84 -30 -59 -31 9 0 22 -6 28 -14 10 -12 20 -11
64 5 28 10 54 19 57 19 3 0 -4 7 -14 15 -21 16 -23 16 -76 6z"/>
<path d="M3615 2549 c-7 -18 93 -210 113 -217 23 -7 12 34 -28 102 -22 37 -40
71 -40 75 0 3 -9 17 -20 31 -16 21 -20 22 -25 9z"/>
<path d="M3498 2494 c9 -47 106 -214 124 -214 14 0 8 20 -28 92 -66 132 -108
185 -96 122z"/>
<path d="M2004 2356 l-28 -23 26 -17 c19 -12 31 -14 51 -7 36 14 40 27 15 50
-27 26 -31 26 -64 -3z"/>
<path d="M1212 2468 c-12 -16 105 -178 137 -190 24 -9 25 -5 8 42 -7 19 -19
36 -27 38 -8 2 -18 9 -21 15 -16 29 -75 107 -80 107 -4 0 -11 -6 -17 -12z"/>
<path d="M1106 2391 c-3 -5 10 -28 29 -51 40 -48 40 -49 20 -76 -20 -26 -19
-34 6 -34 12 0 35 -11 51 -25 17 -14 32 -24 34 -22 8 8 -36 93 -63 122 -15 17
-32 44 -38 60 -11 30 -29 43 -39 26z"/>
<path d="M982 2333 c2 -5 33 -53 69 -108 64 -98 94 -133 105 -123 8 8 -38 100
-64 128 -13 14 -37 44 -53 68 -17 23 -37 42 -45 42 -9 0 -14 -3 -12 -7z"/>
<path d="M4340 2368 c0 -19 2 -20 10 -8 13 19 13 30 0 30 -5 0 -10 -10 -10
-22z"/>
<path d="M4380 2366 c0 -14 -4 -28 -10 -31 -5 -3 -10 -14 -10 -23 1 -12 9 -8
30 17 28 33 30 61 4 61 -8 0 -14 -10 -14 -24z"/>
<path d="M4490 2303 c0 -7 -12 -13 -26 -13 -21 0 -24 -3 -15 -14 14 -16 61
-18 61 -2 0 16 -20 44 -20 29z"/>
<path d="M4378 2252 c-14 -6 -11 -14 23 -49 22 -24 41 -43 43 -43 2 0 -3 23
-12 50 -16 50 -22 55 -54 42z"/>
<path d="M4065 2209 c-4 -6 2 -20 12 -32 11 -12 29 -33 41 -46 29 -32 28 -45
-4 -62 -24 -13 -27 -12 -47 15 -28 39 -66 76 -77 76 -24 0 -6 -38 43 -89 28
-31 57 -66 64 -76 11 -19 12 -18 12 9 1 26 23 55 44 56 4 0 21 -14 37 -30 56
-57 24 24 -45 115 -25 33 -45 63 -45 67 0 12 -28 10 -35 -3z"/>
<path d="M3795 2030 c10 -33 137 -222 153 -228 19 -6 14 27 -8 51 -11 12 -18
27 -16 34 3 7 0 12 -7 10 -7 -1 -11 6 -11 15 1 10 -2 15 -7 13 -4 -3 -23 18
-42 47 -18 29 -42 60 -52 68 -17 14 -17 13 -10 -10z"/>
<path d="M670 2351 c0 -4 -11 -20 -24 -34 -21 -22 -22 -28 -10 -38 9 -7 14 -8
13 -3 -4 22 3 23 23 4 21 -20 23 -20 35 -4 7 10 13 14 13 10 0 -4 7 -1 15 8
18 17 20 30 3 20 -8 -5 -9 -2 -5 9 9 23 -2 21 -24 -4 -10 -11 -15 -28 -12 -37
4 -14 3 -15 -6 -2 -7 11 -6 21 4 36 10 16 11 24 2 33 -13 13 -27 14 -27 2z"/>
<path d="M590 2288 c1 -21 28 -51 39 -43 7 4 5 14 -6 30 -20 27 -33 32 -33 13z"/>
<path d="M526 2245 c-11 -8 -16 -15 -10 -15 5 0 4 -4 -3 -8 -7 -4 -8 -13 -4
-20 11 -18 56 22 45 40 -4 7 2 5 13 -5 11 -9 23 -14 26 -10 11 10 8 33 -4 33
-5 0 -7 -4 -4 -10 3 -5 2 -10 -4 -10 -5 0 -13 5 -16 10 -8 13 -16 12 -39 -5z"/>
<path d="M555 2200 c3 -5 1 -10 -5 -10 -8 0 -8 -6 0 -21 9 -16 14 -18 26 -8
17 14 18 29 3 29 -5 0 -7 -4 -4 -10 3 -5 1 -10 -4 -10 -14 0 -14 13 1 28 9 9
8 12 -6 12 -9 0 -14 -4 -11 -10z"/>
<path d="M3200 2299 c0 -37 19 -59 50 -59 39 0 41 30 4 59 -34 27 -54 27 -54
0z"/>
<path d="M3114 2254 c-7 -27 11 -68 67 -150 25 -37 60 -60 72 -47 3 2 -12 30
-33 61 -20 31 -49 81 -64 110 -14 28 -28 52 -31 52 -3 0 -8 -12 -11 -26z"/>
<path d="M3296 2199 c-7 -35 8 -61 30 -52 20 7 17 47 -5 67 -17 16 -19 15 -25
-15z"/>
<path d="M2927 2123 c-4 -3 -7 -15 -7 -25 0 -20 44 -26 55 -8 14 22 -30 52
-48 33z"/>
<path d="M2980 2005 c-16 -19 -6 -45 18 -45 25 0 46 25 38 45 -7 19 -40 19
-56 0z"/>
<path d="M2745 1803 c-30 -30 -86 -63 -105 -63 -13 0 -20 -7 -20 -20 0 -34 27
-34 60 -2 17 17 40 34 53 38 24 7 57 33 57 44 0 16 -30 18 -45 3z"/>
<path d="M178 1911 c-31 -28 -31 -28 -11 -40 28 -15 50 -5 68 30 19 36 19 39
-5 39 -11 0 -34 -13 -52 -29z"/>
<path d="M4624 1999 c-3 -6 10 -26 30 -45 20 -19 39 -48 43 -64 6 -32 23 -39
43 -15 10 12 4 24 -31 66 -49 57 -74 75 -85 58z"/>
<path d="M4568 1893 c-30 -7 -14 -53 19 -53 12 0 53 38 53 50 0 8 -45 9 -72 3z"/>
<path d="M3423 1929 c-32 -12 -29 -25 15 -73 20 -22 44 -51 52 -64 13 -20 19
-22 42 -13 23 9 26 14 19 33 -4 13 -17 24 -29 26 -32 5 -74 49 -67 71 7 24 -4
31 -32 20z"/>
<path d="M3288 1863 c-20 -5 -31 -38 -26 -79 5 -42 23 -39 37 6 6 22 18 40 25
40 15 0 56 -70 56 -97 0 -11 8 -28 19 -37 18 -16 20 -15 52 25 l33 41 -32 -6
c-29 -7 -32 -5 -56 43 -33 64 -56 78 -108 64z"/>
<path d="M3322 1691 c4 -13 18 -16 19 -4 0 4 -5 9 -11 12 -7 2 -11 -2 -8 -8z"/>
<path d="M2293 1933 c-34 -4 -46 -23 -15 -23 28 0 62 12 62 21 0 5 -3 8 -7 7
-5 0 -23 -3 -40 -5z"/>
<path d="M2046 1818 c1 -30 8 -67 14 -83 6 -17 14 -50 17 -75 6 -63 22 -107
38 -114 17 -6 22 29 6 38 -5 3 -11 23 -14 43 -3 21 -8 49 -11 63 -3 14 -8 43
-11 65 -11 74 -20 108 -31 112 -7 2 -10 -15 -8 -49z"/>
<path d="M2235 1795 c-38 -14 -71 -25 -72 -25 -2 0 -3 -4 -3 -10 0 -6 10 -6
27 1 15 6 60 16 100 24 40 8 81 19 91 24 36 21 -73 10 -143 -14z"/>
<path d="M2248 1727 c-140 -14 -131 -30 22 -42 41 -3 86 -6 100 -8 22 -2 25 2
25 28 0 36 -6 37 -147 22z"/>
<path d="M2248 1593 c-50 -3 -68 -8 -68 -18 0 -8 4 -16 8 -19 14 -8 201 19
214 32 13 13 5 13 -154 5z"/>
<path d="M2121 1514 c0 -11 3 -14 6 -6 3 7 2 16 -1 19 -3 4 -6 -2 -5 -13z"/>
<path d="M910 1930 c-12 -8 -12 -11 2 -27 8 -10 22 -39 31 -65 13 -41 14 -48
1 -59 -12 -10 -11 -14 7 -23 13 -6 29 -29 37 -53 18 -57 48 -61 37 -5 -5 20
-7 47 -7 58 1 12 -5 27 -12 33 -8 7 -24 38 -36 71 -25 67 -39 83 -60 70z"/>
<path d="M800 1877 c0 -7 10 -30 21 -52 17 -31 19 -43 10 -57 -15 -25 -14 -38
4 -38 10 0 28 -26 46 -67 37 -84 57 -74 30 15 -11 34 -17 62 -14 62 4 0 -1 8
-9 18 -8 9 -27 43 -41 75 -24 53 -47 75 -47 44z"/>
<path d="M1435 1670 c-18 -3 -31 -12 -33 -24 -4 -16 1 -18 35 -12 21 4 46 7
56 8 9 1 17 11 17 21 0 17 -2 17 -16 6 -10 -8 -18 -9 -22 -3 -4 5 -20 7 -37 4z"/>
<path d="M1520 1661 c0 -6 5 -13 10 -16 6 -3 10 1 10 9 0 9 -4 16 -10 16 -5 0
-10 -4 -10 -9z"/>
<path d="M1687 1560 c-3 -13 0 -20 9 -20 8 0 14 9 14 20 0 11 -4 20 -9 20 -5
0 -11 -9 -14 -20z"/>
<path d="M1513 1553 c-7 -2 -13 -11 -13 -19 0 -9 -4 -12 -10 -9 -5 3 -10 0
-10 -8 0 -10 8 -13 26 -9 18 3 22 7 13 13 -10 6 -10 10 0 23 14 17 14 17 -6 9z"/>
<path d="M1428 1523 c6 -2 10 -9 6 -14 -3 -5 2 -9 10 -9 9 0 16 4 16 9 0 9
-25 22 -38 20 -4 0 -1 -3 6 -6z"/>
<path d="M1630 1437 c0 -24 38 -121 49 -125 22 -7 23 29 2 73 -12 25 -21 49
-21 55 0 5 -7 10 -15 10 -8 0 -15 -6 -15 -13z"/>
<path d="M1520 1415 c0 -8 6 -31 14 -49 8 -20 10 -39 5 -47 -15 -24 -10 -31
18 -24 16 4 29 8 31 10 9 8 -39 120 -52 123 -9 2 -16 -3 -16 -13z"/>
<path d="M4340 1697 c0 -7 12 -19 26 -26 18 -8 25 -17 21 -30 -3 -13 1 -21 12
-24 16 -4 16 0 6 42 -10 39 -16 47 -39 49 -17 2 -26 -1 -26 -11z"/>
<path d="M2854 1625 c-4 -9 7 -30 25 -50 17 -20 33 -48 37 -63 3 -15 7 -33 10
-39 5 -17 41 -16 47 1 12 30 -73 166 -104 166 -5 0 -12 -7 -15 -15z"/>
<path d="M2733 1540 c-29 -17 -33 -25 -33 -61 0 -102 147 -142 166 -45 7 43 0
66 -31 100 -29 31 -59 33 -102 6z m79 -17 c33 -30 14 -103 -27 -103 -16 0 -55
47 -55 67 0 48 46 69 82 36z"/>
<path d="M408 1645 c-6 -7 37 -134 51 -148 12 -12 31 0 31 19 0 20 -58 134
-68 134 -5 0 -11 -2 -14 -5z"/>
<path d="M280 1575 c0 -14 16 -57 36 -96 27 -54 38 -69 47 -60 12 12 2 50 -38
144 -18 43 -45 50 -45 12z"/>
<path d="M1174 1533 c-9 -3 -8 -12 3 -33 8 -16 15 -39 16 -50 1 -11 4 -20 8
-20 4 0 10 -11 13 -25 3 -13 15 -29 26 -35 25 -13 25 -10 1 43 -11 23 -22 56
-26 74 -7 34 -23 53 -41 46z"/>
<path d="M1065 1488 c-9 -22 0 -80 15 -105 15 -23 56 -50 65 -42 2 3 -8 38
-23 79 -27 72 -47 96 -57 68z"/>
<path d="M4495 1260 c-8 -13 5 -13 25 0 13 8 13 10 -2 10 -9 0 -20 -4 -23 -10z"/>
<path d="M4386 1225 c-8 -8 -22 -15 -30 -15 -9 0 -16 -4 -16 -9 0 -14 30 -41
45 -41 32 0 45 13 45 46 0 37 -18 45 -44 19z"/>
<path d="M767 1364 c-1 -2 -14 -5 -27 -7 -86 -16 -101 -20 -106 -28 -7 -13 80
-10 149 4 67 14 79 31 25 32 -21 1 -39 1 -41 -1z"/>
<path d="M743 1265 c-88 -16 -110 -39 -78 -81 15 -18 16 -18 41 11 15 16 36
30 48 31 12 1 34 7 50 13 19 8 32 8 41 1 16 -13 24 -4 18 21 -6 21 -20 22
-120 4z"/>
<path d="M857 1188 c-3 -8 -33 -19 -67 -26 -66 -12 -131 -41 -138 -60 -5 -17
21 -15 70 7 89 39 118 44 138 26 17 -15 20 -15 44 6 32 28 33 39 3 39 -13 0
-28 5 -34 11 -7 7 -12 6 -16 -3z"/>
<path d="M850 1081 c-8 -4 -41 -13 -72 -20 -61 -13 -80 -38 -30 -40 15 0 35
-1 45 -1 27 -2 92 33 92 49 0 18 -15 23 -35 12z"/>
<path d="M2420 1355 c0 -8 4 -15 9 -15 11 0 21 -26 27 -70 6 -51 24 -90 42
-90 11 0 13 8 9 38 -7 55 -53 152 -71 152 -9 0 -16 -7 -16 -15z"/>
<path d="M2300 1342 c0 -4 7 -16 15 -26 8 -11 20 -46 26 -78 6 -32 19 -67 29
-78 22 -25 45 -27 35 -2 -4 9 -10 25 -12 35 -3 9 -9 17 -14 17 -5 0 -9 9 -9
20 0 12 -7 32 -16 45 -9 14 -14 35 -10 48 4 19 1 23 -19 25 -14 1 -25 -2 -25
-6z"/>
<path d="M2165 1308 c4 -13 16 -60 28 -105 13 -52 26 -83 34 -83 25 0 26 31 4
84 -12 29 -22 69 -23 89 -1 32 -4 37 -26 37 -21 0 -23 -3 -17 -22z"/>
<path d="M3073 1313 c-18 -7 -16 -33 2 -33 8 0 15 9 15 20 0 11 -1 20 -2 19
-2 0 -9 -3 -15 -6z"/>
<path d="M3105 1310 c3 -5 10 -10 16 -10 5 0 9 5 9 10 0 6 -7 10 -16 10 -8 0
-12 -4 -9 -10z"/>
<path d="M2972 1238 c-7 -7 -12 -18 -12 -25 0 -17 35 -17 49 1 16 19 -20 41
-37 24z"/>
<path d="M3145 1222 c-33 -18 -45 -32 -44 -47 0 -5 3 -4 6 3 2 6 10 12 18 12
7 0 18 6 24 14 7 8 21 12 32 9 15 -4 18 -2 13 11 -7 19 -10 19 -49 -2z"/>
<path d="M3196 1138 c7 -10 -16 -31 -61 -53 -16 -9 -41 -25 -55 -36 -14 -11
16 1 67 27 50 26 90 51 87 55 -2 4 -13 9 -24 12 -12 3 -17 1 -14 -5z"/>
<path d="M3272 1019 c-11 -17 -9 -19 13 -19 15 0 25 6 25 14 0 22 -25 26 -38
5z"/>
<path d="M3115 957 c-40 -13 -47 -26 -25 -50 19 -19 19 -19 54 3 20 12 36 26
36 30 0 18 -35 27 -65 17z"/>
<path d="M1225 1185 c-35 -11 -40 -16 -38 -41 2 -26 31 -109 56 -161 6 -13 16
-23 22 -23 16 0 5 62 -17 105 -9 17 -18 46 -20 65 -3 31 0 35 20 34 12 0 22 3
22 8 0 5 5 6 10 3 6 -3 10 1 10 9 0 18 -10 19 -65 1z"/>
<path d="M1717 1063 c-33 -13 -81 -26 -109 -28 -28 -2 -54 -7 -59 -12 -15 -15
1 -45 20 -38 9 4 62 17 118 29 56 11 104 24 108 28 8 8 -3 48 -13 47 -4 -1
-33 -12 -65 -26z"/>
<path d="M1705 933 c-49 -10 -175 -57 -175 -65 0 -16 37 -77 44 -71 3 3 6 19
6 34 0 31 6 36 51 49 l31 9 -6 -34 c-8 -40 2 -45 72 -30 26 6 27 13 6 40 -12
17 -17 18 -35 7 -12 -8 -23 -11 -26 -8 -11 10 10 26 48 36 51 14 73 0 65 -42
-6 -28 0 -33 28 -22 20 8 20 37 1 74 -13 26 -21 30 -53 29 -20 -1 -46 -3 -57
-6z"/>
<path d="M1770 753 c-41 -14 -91 -31 -110 -40 -33 -14 -35 -14 -57 11 -12 14
-25 26 -28 26 -3 0 -5 -20 -5 -45 0 -51 3 -52 71 -31 24 8 78 21 119 31 83 18
100 28 100 56 0 22 5 23 -90 -8z"/>
<path d="M4708 978 c-2 -6 2 -24 9 -39 8 -15 13 -42 13 -61 -2 -52 10 -122 23
-135 8 -8 17 -9 26 -3 13 7 13 19 3 77 -18 107 -38 168 -55 171 -8 2 -17 -3
-19 -10z"/>
<path d="M4576 962 c-4 -6 7 -91 20 -152 3 -14 8 -42 11 -62 5 -36 28 -57 45
-40 5 5 -2 52 -17 108 -13 54 -25 109 -25 120 0 21 -25 40 -34 26z"/>
<path d="M4860 901 c0 -31 23 -121 30 -121 13 0 27 24 28 45 1 30 -29 95 -45
95 -7 0 -13 -9 -13 -19z"/>
<path d="M2536 675 c-61 -47 -75 -52 -93 -34 -7 7 -19 9 -28 5 -14 -5 -12 -11
14 -37 36 -36 37 -35 134 23 68 41 71 45 61 72 -10 25 -26 19 -88 -29z"/>
<path d="M3527 774 c-3 -4 0 -13 8 -20 7 -8 20 -44 29 -80 8 -37 21 -74 29
-82 27 -26 31 22 8 93 -12 35 -21 71 -21 80 0 15 -40 22 -53 9z"/>
<path d="M394 646 c-5 -12 1 -44 15 -85 20 -57 21 -66 8 -76 -13 -9 -11 -13
15 -23 25 -9 30 -16 26 -36 -3 -14 -1 -23 3 -20 16 10 6 93 -18 154 -3 8 -8
23 -10 33 -1 10 -9 30 -17 45 -13 25 -15 26 -22 8z"/>
<path d="M4173 632 c-9 -6 -6 -15 13 -35 29 -32 44 -34 44 -8 0 45 -25 64 -57
43z"/>
<path d="M4057 609 c-3 -11 1 -36 9 -56 8 -19 16 -54 18 -76 4 -59 34 -134 52
-130 19 5 14 47 -14 136 -17 51 -33 104 -36 120 -7 32 -21 35 -29 6z"/>
<path d="M3931 566 c-9 -11 -10 -20 -4 -28 14 -18 26 -67 28 -113 2 -45 33
-116 54 -123 11 -4 12 1 7 19 -4 13 -9 40 -12 59 -3 19 -9 44 -14 55 -4 11
-14 43 -21 70 -17 72 -23 80 -38 61z"/>
<path d="M4250 510 c0 -5 -10 -10 -23 -10 -13 0 -32 -7 -43 -15 -18 -14 -18
-14 8 -15 19 0 32 -9 48 -35 22 -36 47 -49 35 -17 -17 44 -18 72 -1 72 9 0 16
7 16 15 0 8 -9 15 -20 15 -11 0 -20 -4 -20 -10z"/>
<path d="M4045 440 c-3 -5 -1 -10 4 -10 6 0 11 5 11 10 0 6 -2 10 -4 10 -3 0
-8 -4 -11 -10z"/>
<path d="M1264 167 c-8 -23 3 -50 19 -44 13 4 11 36 -4 51 -5 6 -11 3 -15 -7z"/>
<path d="M3565 415 c-44 -13 -98 -33 -120 -44 l-40 -20 32 -1 c33 0 209 65
219 81 7 12 0 11 -91 -16z"/>
<path d="M3688 338 c-43 -11 -46 -18 -18 -36 12 -7 20 -8 20 -2 0 6 12 16 26
22 21 10 27 9 35 -3 7 -11 9 -9 9 9 0 24 -12 26 -72 10z"/>
<path d="M3580 310 c-8 -5 -12 -12 -8 -15 8 -8 58 5 58 16 0 12 -31 11 -50 -1z"/>
<path d="M3520 290 c0 -5 4 -10 9 -10 6 0 13 5 16 10 3 6 -1 10 -9 10 -9 0
-16 -4 -16 -10z"/>
<path d="M3587 243 c-4 -3 -7 -19 -7 -35 0 -16 -6 -31 -15 -34 -22 -9 -18 -23
5 -17 11 3 27 0 35 -7 13 -11 15 -8 15 21 0 61 -14 91 -33 72z"/>
<path d="M650 5110 c0 -19 31 -23 48 -6 15 15 14 16 -16 16 -18 0 -32 -5 -32
-10z"/>
<path d="M1408 5082 c-78 -35 -96 -52 -58 -52 30 0 152 50 175 71 19 19 19 19
-10 18 -17 0 -65 -17 -107 -37z"/>
<path d="M3325 5111 c-3 -2 -5 -13 -5 -24 0 -16 5 -18 28 -13 15 4 62 12 104
19 42 7 80 15 83 19 9 8 -115 2 -145 -7 -11 -3 -20 -3 -20 2 0 9 -37 12 -45 4z"/>
<path d="M4309 5103 c6 -10 24 -48 41 -85 27 -63 49 -83 64 -59 3 4 -11 41
-32 82 -28 56 -43 75 -60 77 -20 3 -22 1 -13 -15z"/>
<path d="M4456 5093 c17 -71 64 -133 64 -85 0 34 -38 112 -55 112 -12 0 -14
-6 -9 -27z"/>
<path d="M4828 5094 c41 -25 72 -26 72 -4 0 5 -9 10 -19 10 -11 0 -23 5 -26
10 -3 6 -21 10 -38 10 l-32 0 43 -26z"/>
<path d="M4918 5113 c7 -3 16 -2 19 1 4 3 -2 6 -13 5 -11 0 -14 -3 -6 -6z"/>
<path d="M2165 5082 c3 -34 11 -50 21 -40 3 3 -2 21 -10 39 l-14 34 3 -33z"/>
<path d="M4204 5035 c-8 -19 7 -62 40 -114 26 -41 46 -53 46 -28 0 16 -67 157
-75 157 -3 0 -8 -7 -11 -15z"/>
<path d="M4760 5018 c39 -33 192 -98 165 -70 -15 16 -162 92 -177 92 -7 -1 -2
-10 12 -22z"/>
<path d="M1500 4979 c0 -4 -9 -5 -20 -2 -14 4 -20 0 -20 -11 0 -10 -4 -15 -9
-12 -12 8 -61 -17 -61 -30 0 -6 8 -18 19 -28 16 -15 20 -15 31 -2 19 24 99 65
105 55 10 -15 35 -10 35 6 0 8 -5 15 -11 15 -5 0 -8 4 -5 8 3 5 -10 9 -29 9
-19 0 -35 -4 -35 -8z"/>
<path d="M0 4400 c0 -28 2 -30 20 -20 24 13 24 12 0 33 -19 16 -20 16 -20 -13z"/>
<path d="M4993 4082 c-18 -3 -20 -7 -13 -20 5 -9 11 -25 14 -34 7 -23 38 -23
59 0 10 10 17 21 17 25 0 11 -55 32 -77 29z"/>
<path d="M1 4010 c-1 -20 8 -46 19 -60 18 -23 20 -23 19 -5 0 11 -8 38 -19 60
l-19 40 0 -35z"/>
<path d="M4880 3989 c0 -6 7 -9 15 -5 8 3 21 -4 29 -15 13 -19 14 -19 32 -2
17 17 17 18 -12 24 -47 10 -64 10 -64 -2z"/>
<path d="M5040 3891 c-78 -30 -120 -54 -120 -69 0 -20 60 -8 119 24 107 56
108 86 1 45z"/>
<path d="M200 3725 c-10 -12 -10 -15 3 -15 10 0 21 -16 28 -42 7 -24 17 -48
22 -55 5 -7 6 -17 2 -23 -3 -5 -2 -10 3 -10 6 0 13 -15 16 -34 6 -32 27 -52
40 -39 12 12 -6 78 -42 156 -35 78 -49 89 -72 62z"/>
<path d="M74 3706 c-3 -8 6 -43 21 -78 14 -34 33 -83 42 -108 19 -54 29 -68
42 -55 6 6 -1 41 -20 95 -53 152 -71 183 -85 146z"/>
<path d="M0 3572 c0 -53 58 -167 76 -149 4 4 -62 165 -72 176 -2 2 -4 -10 -4
-27z"/>
<path d="M5070 3347 c0 -8 11 -24 25 -37 21 -19 25 -21 25 -7 0 15 -33 57 -45
57 -3 0 -5 -6 -5 -13z"/>
<path d="M4964 3267 c-47 -26 -41 -41 48 -112 83 -66 108 -67 108 -4 0 37 -1
38 -20 27 -17 -11 -26 -10 -58 8 -43 25 -52 61 -13 56 13 -1 36 -11 51 -22 34
-24 40 -25 40 -5 0 31 -121 71 -156 52z"/>
<path d="M98 3212 c-4 -27 11 -52 30 -52 6 0 12 -9 15 -20 3 -13 0 -20 -9 -20
-16 0 -17 -15 -4 -45 8 -19 9 -19 9 3 1 12 5 22 9 22 5 0 7 -13 4 -29 -3 -21
2 -33 19 -44 12 -9 26 -14 30 -11 7 4 -19 83 -42 126 -5 10 -9 26 -9 36 0 10
-11 29 -24 41 l-24 22 -4 -29z"/>
<path d="M6 3115 c8 -74 11 -87 25 -117 13 -30 25 -35 32 -15 5 13 -15 74 -51
157 -10 21 -10 17 -6 -25z"/>
<path d="M5000 2631 c0 -5 21 -24 48 -43 72 -52 72 -52 72 -26 0 15 -14 32
-39 51 -38 26 -81 36 -81 18z"/>
<path d="M4906 2534 c-11 -29 -6 -44 14 -44 11 0 25 -9 32 -20 7 -11 18 -20
24 -20 6 0 17 -7 24 -15 7 -8 19 -15 26 -15 8 0 14 7 14 15 0 9 9 15 23 15 21
1 21 1 -6 25 -34 31 -44 31 -43 4 1 -33 -21 -34 -29 -1 -3 16 -19 39 -35 50
-35 26 -36 26 -44 6z"/>
<path d="M50 2520 c0 -11 104 -188 120 -204 4 -4 13 -5 19 -2 13 8 -1 39 -67
144 -40 64 -72 91 -72 62z"/>
<path d="M5111 2394 c0 -11 3 -14 6 -6 3 7 2 16 -1 19 -3 4 -6 -2 -5 -13z"/>
<path d="M0 2367 c0 -42 27 -102 59 -131 34 -31 27 2 -19 91 -39 77 -40 77
-40 40z"/>
<path d="M4880 2391 c0 -12 50 -44 58 -37 7 7 -33 46 -48 46 -5 0 -10 -4 -10
-9z"/>
<path d="M5039 2314 c-25 -27 -25 -64 0 -64 10 0 32 5 50 11 26 9 31 16 31 42
0 29 -3 32 -31 32 -18 0 -38 -9 -50 -21z"/>
<path d="M5090 1938 c0 -8 7 -23 15 -34 15 -18 15 -18 13 10 -3 29 -28 50 -28
24z"/>
<path d="M4855 1497 c4 -17 17 -51 28 -75 20 -43 20 -43 39 -25 18 19 18 20
-14 71 -41 64 -63 76 -53 29z"/>
<path d="M4732 1463 c15 -54 62 -145 87 -167 21 -19 21 -19 21 1 0 31 -89 203
-105 203 -11 0 -11 -7 -3 -37z"/>
<path d="M0 1415 c0 -28 6 -30 44 -15 39 15 33 40 -9 40 -31 0 -35 -3 -35 -25z"/>
<path d="M0 1250 c0 -23 5 -30 19 -30 21 0 33 22 25 45 -4 8 -15 15 -25 15
-14 0 -19 -7 -19 -30z"/>
<path d="M4940 622 c0 -22 67 -176 78 -180 29 -9 -6 127 -44 169 -18 20 -34
25 -34 11z"/>
<path d="M4801 578 c0 -7 12 -47 27 -88 19 -53 33 -76 46 -78 16 -4 18 0 12
33 -11 59 -53 145 -70 145 -9 0 -16 -6 -15 -12z"/>
<path d="M2146 546 c-100 -32 -134 -56 -79 -56 38 1 218 62 218 75 0 19 -40
13 -139 -19z"/>
<path d="M1 465 c0 -73 2 -86 11 -70 14 24 14 100 0 135 -9 20 -11 6 -11 -65z"/>
<path d="M4633 530 c-29 -17 -33 -25 -33 -63 0 -61 34 -111 79 -115 18 -2 37
0 42 5 4 4 -4 9 -18 10 -32 1 -50 23 -64 76 -8 31 -7 43 6 63 19 29 36 30 59
5 22 -25 47 -107 39 -128 -5 -13 -2 -15 11 -10 10 4 20 7 22 7 9 0 3 50 -10
81 -21 51 -55 89 -79 89 -12 0 -37 -9 -54 -20z"/>
<path d="M2255 350 c-49 -22 -95 -39 -102 -40 -18 0 -27 -20 -15 -32 7 -7 24
-3 55 15 24 15 66 31 93 37 53 12 74 25 74 46 0 19 -3 18 -105 -26z"/>
<path d="M623 236 c-10 -5 -31 -11 -47 -13 -36 -4 -43 -10 -29 -24 8 -8 35 -4
93 11 62 17 84 20 93 11 8 -8 12 -50 12 -117 0 -88 2 -104 15 -102 12 3 15 24
14 123 l-1 120 -66 1 c-37 0 -74 -4 -84 -10z"/>
<path d="M2295 230 c-27 -10 -63 -19 -80 -19 -35 -2 -81 -33 -71 -50 11 -16
45 -13 95 9 24 11 61 23 82 26 41 7 65 26 54 44 -8 13 -21 12 -80 -10z"/>
<path d="M29 163 c11 -16 29 -58 42 -95 18 -58 25 -68 44 -68 l23 0 -18 37
c-10 21 -21 53 -25 70 -3 18 -11 35 -16 38 -5 4 -9 15 -9 26 0 15 -7 19 -30
19 l-31 0 20 -27z"/>
<path d="M2797 172 c-10 -2 -16 -9 -13 -15 2 -7 14 -45 27 -85 18 -60 25 -72
44 -72 l21 0 -28 82 c-34 102 -30 94 -51 90z"/>
<path d="M5075 170 c-16 -4 -48 -16 -70 -26 -36 -17 -38 -19 -15 -21 41 -5
125 21 128 40 4 18 2 19 -43 7z"/>
<path d="M4437 155 c-4 -8 -13 -15 -22 -15 -8 0 -15 -5 -15 -12 0 -9 -3 -9
-12 0 -20 20 -32 13 -13 -8 22 -24 43 -26 52 -4 3 10 13 14 25 11 15 -4 19 -1
16 15 -4 26 -23 34 -31 13z"/>
<path d="M1068 153 c6 -2 18 -2 25 0 6 3 1 5 -13 5 -14 0 -19 -2 -12 -5z"/>
<path d="M1894 125 c-42 -42 -10 -112 47 -100 18 4 32 0 43 -11 24 -24 69 -4
64 28 -3 21 -9 23 -63 23 -55 0 -60 2 -63 23 -4 24 29 45 36 24 4 -14 38 -16
47 -3 8 13 -35 41 -63 41 -12 0 -34 -11 -48 -25z"/>
<path d="M1010 129 c0 -5 5 -7 10 -4 6 3 10 8 10 11 0 2 -4 4 -10 4 -5 0 -10
-5 -10 -11z"/>
<path d="M2655 131 c-3 -6 4 -38 16 -71 18 -49 26 -60 44 -60 l23 0 -27 67
c-27 66 -43 84 -56 64z"/>
<path d="M640 110 c0 -25 -18 -26 -35 -3 -11 15 -15 15 -29 3 -10 -7 -16 -23
-14 -34 2 -17 10 -21 42 -22 37 -1 58 -15 69 -48 2 -6 7 -8 11 -5 12 11 -17
129 -31 129 -7 0 -13 -9 -13 -20z"/>
<path d="M4327 124 c-3 -6 -19 -11 -34 -12 -31 -1 -117 -35 -127 -50 -11 -18
23 -36 47 -25 12 6 37 16 55 23 17 7 32 17 32 22 0 22 20 -6 31 -42 9 -29 18
-40 32 -40 14 0 17 4 10 13 -8 10 -30 77 -37 112 -1 5 -5 5 -9 -1z"/>
<path d="M1740 91 c0 -5 9 -11 20 -14 29 -8 25 -37 -5 -38 -14 -1 -31 -2 -37
-3 -7 -1 -13 9 -12 22 1 23 -4 26 -30 16 -10 -4 -16 -18 -16 -40 l0 -34 89 0
90 0 -11 32 c-5 18 -19 41 -30 51 -21 18 -58 23 -58 8z"/>
<path d="M977 76 c-3 -7 4 -18 15 -25 28 -17 34 -7 10 17 -15 15 -22 17 -25 8z"/>
<path d="M1100 9 c-22 -6 -20 -7 13 -8 20 -1 37 3 37 7 0 10 -17 11 -50 1z"/>
<path d="M1535 10 c-4 -6 8 -10 30 -10 22 0 34 4 30 10 -8 13 -52 13 -60 0z"/>
<path d="M4288 3 c6 -2 18 -2 25 0 6 3 1 5 -13 5 -14 0 -19 -2 -12 -5z"/>
</g>
</svg>
